<?xml version="1.0" encoding="UTF-8" standalone="no"?><svg xmlns="http://www.w3.org/2000/svg" xmlns:xlink="http://www.w3.org/1999/xlink" clip-rule="evenodd" stroke-miterlimit="10" viewBox="0 0 720 540"><desc>SVG generated by Keynote</desc><defs></defs><g transform="matrix(1.00, 0.00, -0.00, -1.00, 0.0, 540.0)"><path d="M 0.0 540.0 L 720.0 540.0 L 720.0 0.0 L 0.0 0.0 Z M 0.0 540.0 " fill="#FFFFFF"></path><image xlink:href="../../045D45E7-1013-462A-8CDC-1884EC156DCD/assets/BE3DFCE860134B92C519AA4F1C594AC7.jpeg" width="159.00" height="65.00" transform="matrix(0.75, 0.00, -0.00, -0.75, 600.8, 48.8)"></image><image xlink:href="../../045D45E7-1013-462A-8CDC-1884EC156DCD/assets/6CDF1A72F53077ED9FEB2236C202D045.png" width="276.00" height="252.00" transform="matrix(0.56, 0.00, -0.00, -0.56, 0.0, 540.0)"></image><text xml:space="preserve" font-family="ArialMT,Arial" font-size="44.0" fill="#000000" transform="matrix(1.00, 0.00, -0.00, -1.00, 245.0, 457.9)">I</text><text xml:space="preserve" font-family="ArialMT,Arial" font-size="44.0" fill="#000000" transform="matrix(1.00, 0.00, -0.00, -1.00, 257.3, 457.9)">n</text><text xml:space="preserve" font-family="ArialMT,Arial" font-size="44.0" fill="#000000" transform="matrix(1.00, 0.00, -0.00, -1.00, 281.7, 457.9)">t</text><text xml:space="preserve" font-family="ArialMT,Arial" font-size="44.0" fill="#000000" transform="matrix(1.00, 0.00, -0.00, -1.00, 293.9, 457.9)">r</text><text xml:space="preserve" font-family="ArialMT,Arial" font-size="44.0" fill="#000000" transform="matrix(1.00, 0.00, -0.00, -1.00, 308.6, 457.9)">o</text><text xml:space="preserve" font-family="ArialMT,Arial" font-size="44.0" fill="#000000" transform="matrix(1.00, 0.00, -0.00, -1.00, 333.1, 457.9)">d</text><text xml:space="preserve" font-family="ArialMT,Arial" font-size="44.0" fill="#000000" transform="matrix(1.00, 0.00, -0.00, -1.00, 357.6, 457.9)">u</text><text xml:space="preserve" font-family="ArialMT,Arial" font-size="44.0" fill="#000000" transform="matrix(1.00, 0.00, -0.00, -1.00, 382.0, 457.9)">c</text><text xml:space="preserve" font-family="ArialMT,Arial" font-size="44.0" fill="#000000" transform="matrix(1.00, 0.00, -0.00, -1.00, 404.0, 457.9)">t</text><text xml:space="preserve" font-family="ArialMT,Arial" font-size="44.0" fill="#000000" transform="matrix(1.00, 0.00, -0.00, -1.00, 416.3, 457.9)">i</text><text xml:space="preserve" font-family="ArialMT,Arial" font-size="44.0" fill="#000000" transform="matrix(1.00, 0.00, -0.00, -1.00, 426.0, 457.9)">o</text><text xml:space="preserve" font-family="ArialMT,Arial" font-size="44.0" fill="#000000" transform="matrix(1.00, 0.00, -0.00, -1.00, 450.5, 457.9)">n</text><text xml:space="preserve" font-family="ArialMT,Arial" font-size="32.0" fill="#000000" transform="matrix(1.00, 0.00, -0.00, -1.00, 39.6, 381.2)">•</text><text xml:space="preserve" font-family="Arial-BoldMT,Arial" font-weight="bold" font-size="32.0" fill="#000000" transform="matrix(1.00, 0.00, -0.00, -1.00, 66.6, 381.2)">S</text><text xml:space="preserve" font-family="Arial-BoldMT,Arial" font-weight="bold" font-size="32.0" fill="#000000" transform="matrix(1.00, 0.00, -0.00, -1.00, 87.9, 381.2)">o</text><text xml:space="preserve" font-family="Arial-BoldMT,Arial" font-weight="bold" font-size="32.0" fill="#000000" transform="matrix(1.00, 0.00, -0.00, -1.00, 107.5, 381.2)">f</text><text xml:space="preserve" font-family="Arial-BoldMT,Arial" font-weight="bold" font-size="32.0" fill="#000000" transform="matrix(1.00, 0.00, -0.00, -1.00, 118.1, 381.2)">t</text><text xml:space="preserve" font-family="Arial-BoldMT,Arial" font-weight="bold" font-size="32.0" fill="#000000" transform="matrix(1.00, 0.00, -0.00, -1.00, 128.8, 381.2)">E</text><text xml:space="preserve" font-family="Arial-BoldMT,Arial" font-weight="bold" font-size="32.0" fill="#000000" transform="matrix(1.00, 0.00, -0.00, -1.00, 150.1, 381.2)">t</text><text xml:space="preserve" font-family="Arial-BoldMT,Arial" font-weight="bold" font-size="32.0" fill="#000000" transform="matrix(1.00, 0.00, -0.00, -1.00, 160.8, 381.2)">h</text><text xml:space="preserve" font-family="Arial-BoldMT,Arial" font-weight="bold" font-size="32.0" fill="#000000" transform="matrix(1.00, 0.00, -0.00, -1.00, 180.3, 381.2)">e</text><text xml:space="preserve" font-family="Arial-BoldMT,Arial" font-weight="bold" font-size="32.0" fill="#000000" transform="matrix(1.00, 0.00, -0.00, -1.00, 198.1, 381.2)">r</text><text xml:space="preserve" font-family="Arial-BoldMT,Arial" font-weight="bold" font-size="32.0" fill="#000000" transform="matrix(1.00, 0.00, -0.00, -1.00, 210.6, 381.2)"> </text><text xml:space="preserve" font-family="Arial-BoldMT,Arial" font-weight="bold" font-size="32.0" fill="#000000" transform="matrix(1.00, 0.00, -0.00, -1.00, 219.5, 381.2)">V</text><text xml:space="preserve" font-family="Arial-BoldMT,Arial" font-weight="bold" font-size="32.0" fill="#000000" transform="matrix(1.00, 0.00, -0.00, -1.00, 240.8, 381.2)">P</text><text xml:space="preserve" font-family="Arial-BoldMT,Arial" font-weight="bold" font-size="32.0" fill="#000000" transform="matrix(1.00, 0.00, -0.00, -1.00, 262.2, 381.2)">N</text><text xml:space="preserve" font-family="Arial-BoldMT,Arial" font-weight="bold" font-size="32.0" fill="#000000" transform="matrix(1.00, 0.00, -0.00, -1.00, 285.3, 381.2)"> </text><text xml:space="preserve" font-family="Arial-BoldMT,Arial" font-weight="bold" font-size="32.0" fill="#000000" transform="matrix(1.00, 0.00, -0.00, -1.00, 294.2, 381.2)">P</text><text xml:space="preserve" font-family="Arial-BoldMT,Arial" font-weight="bold" font-size="32.0" fill="#000000" transform="matrix(1.00, 0.00, -0.00, -1.00, 315.5, 381.2)">r</text><text xml:space="preserve" font-family="Arial-BoldMT,Arial" font-weight="bold" font-size="32.0" fill="#000000" transform="matrix(1.00, 0.00, -0.00, -1.00, 328.0, 381.2)">o</text><text xml:space="preserve" font-family="Arial-BoldMT,Arial" font-weight="bold" font-size="32.0" fill="#000000" transform="matrix(1.00, 0.00, -0.00, -1.00, 347.5, 381.2)">j</text><text xml:space="preserve" font-family="Arial-BoldMT,Arial" font-weight="bold" font-size="32.0" fill="#000000" transform="matrix(1.00, 0.00, -0.00, -1.00, 356.4, 381.2)">e</text><text xml:space="preserve" font-family="Arial-BoldMT,Arial" font-weight="bold" font-size="32.0" fill="#000000" transform="matrix(1.00, 0.00, -0.00, -1.00, 374.2, 381.2)">c</text><text xml:space="preserve" font-family="Arial-BoldMT,Arial" font-weight="bold" font-size="32.0" fill="#000000" transform="matrix(1.00, 0.00, -0.00, -1.00, 392.0, 381.2)">t</text><text xml:space="preserve" font-family="Arial-BoldMT,Arial" font-weight="bold" font-size="32.0" fill="#000000" transform="matrix(1.00, 0.00, -0.00, -1.00, 402.7, 381.2)"> </text><text xml:space="preserve" font-family="LucidaGrande,Lucida Grande" font-size="26.0" fill="#000000" transform="matrix(1.00, 0.00, -0.00, -1.00, 75.6, 341.1)">‣</text><text xml:space="preserve" font-family="ArialMT,Arial" font-size="26.0" fill="#000000" transform="matrix(1.00, 0.00, -0.00, -1.00, 102.6, 341.1)">D</text><text xml:space="preserve" font-family="ArialMT,Arial" font-size="26.0" fill="#000000" transform="matrix(1.00, 0.00, -0.00, -1.00, 121.4, 341.1)">e</text><text xml:space="preserve" font-family="ArialMT,Arial" font-size="26.0" fill="#000000" transform="matrix(1.00, 0.00, -0.00, -1.00, 135.8, 341.1)">v</text><text xml:space="preserve" font-family="ArialMT,Arial" font-size="26.0" fill="#000000" transform="matrix(1.00, 0.00, -0.00, -1.00, 148.8, 341.1)">e</text><text xml:space="preserve" font-family="ArialMT,Arial" font-size="26.0" fill="#000000" transform="matrix(1.00, 0.00, -0.00, -1.00, 163.3, 341.1)">l</text><text xml:space="preserve" font-family="ArialMT,Arial" font-size="26.0" fill="#000000" transform="matrix(1.00, 0.00, -0.00, -1.00, 169.1, 341.1)">o</text><text xml:space="preserve" font-family="ArialMT,Arial" font-size="26.0" fill="#000000" transform="matrix(1.00, 0.00, -0.00, -1.00, 183.6, 341.1)">p</text><text xml:space="preserve" font-family="ArialMT,Arial" font-size="26.0" fill="#000000" transform="matrix(1.00, 0.00, -0.00, -1.00, 198.0, 341.1)">s</text><text xml:space="preserve" font-family="ArialMT,Arial" font-size="26.0" fill="#000000" transform="matrix(1.00, 0.00, -0.00, -1.00, 211.0, 341.1)"> </text><text xml:space="preserve" font-family="ArialMT,Arial" font-size="26.0" fill="#000000" transform="matrix(1.00, 0.00, -0.00, -1.00, 218.2, 341.1)">a</text><text xml:space="preserve" font-family="ArialMT,Arial" font-size="26.0" fill="#000000" transform="matrix(1.00, 0.00, -0.00, -1.00, 232.7, 341.1)">n</text><text xml:space="preserve" font-family="ArialMT,Arial" font-size="26.0" fill="#000000" transform="matrix(1.00, 0.00, -0.00, -1.00, 247.2, 341.1)">d</text><text xml:space="preserve" font-family="ArialMT,Arial" font-size="26.0" fill="#000000" transform="matrix(1.00, 0.00, -0.00, -1.00, 261.6, 341.1)"> </text><text xml:space="preserve" font-family="ArialMT,Arial" font-size="26.0" fill="#000000" transform="matrix(1.00, 0.00, -0.00, -1.00, 268.9, 341.1)">d</text><text xml:space="preserve" font-family="ArialMT,Arial" font-size="26.0" fill="#000000" transform="matrix(1.00, 0.00, -0.00, -1.00, 283.3, 341.1)">i</text><text xml:space="preserve" font-family="ArialMT,Arial" font-size="26.0" fill="#000000" transform="matrix(1.00, 0.00, -0.00, -1.00, 289.1, 341.1)">s</text><text xml:space="preserve" font-family="ArialMT,Arial" font-size="26.0" fill="#000000" transform="matrix(1.00, 0.00, -0.00, -1.00, 302.1, 341.1)">t</text><text xml:space="preserve" font-family="ArialMT,Arial" font-size="26.0" fill="#000000" transform="matrix(1.00, 0.00, -0.00, -1.00, 309.3, 341.1)">r</text><text xml:space="preserve" font-family="ArialMT,Arial" font-size="26.0" fill="#000000" transform="matrix(1.00, 0.00, -0.00, -1.00, 318.0, 341.1)">i</text><text xml:space="preserve" font-family="ArialMT,Arial" font-size="26.0" fill="#000000" transform="matrix(1.00, 0.00, -0.00, -1.00, 323.8, 341.1)">b</text><text xml:space="preserve" font-family="ArialMT,Arial" font-size="26.0" fill="#000000" transform="matrix(1.00, 0.00, -0.00, -1.00, 338.2, 341.1)">u</text><text xml:space="preserve" font-family="ArialMT,Arial" font-size="26.0" fill="#000000" transform="matrix(1.00, 0.00, -0.00, -1.00, 352.7, 341.1)">t</text><text xml:space="preserve" font-family="ArialMT,Arial" font-size="26.0" fill="#000000" transform="matrix(1.00, 0.00, -0.00, -1.00, 359.9, 341.1)">e</text><text xml:space="preserve" font-family="ArialMT,Arial" font-size="26.0" fill="#000000" transform="matrix(1.00, 0.00, -0.00, -1.00, 374.4, 341.1)">s</text><text xml:space="preserve" font-family="ArialMT,Arial" font-size="26.0" fill="#000000" transform="matrix(1.00, 0.00, -0.00, -1.00, 387.4, 341.1)"> </text><text xml:space="preserve" font-family="ArialMT,Arial" font-size="26.0" fill="#000000" transform="matrix(1.00, 0.00, -0.00, -1.00, 394.6, 341.1)">S</text><text xml:space="preserve" font-family="ArialMT,Arial" font-size="26.0" fill="#000000" transform="matrix(1.00, 0.00, -0.00, -1.00, 411.9, 341.1)">o</text><text xml:space="preserve" font-family="ArialMT,Arial" font-size="26.0" fill="#000000" transform="matrix(1.00, 0.00, -0.00, -1.00, 426.4, 341.1)">f</text><text xml:space="preserve" font-family="ArialMT,Arial" font-size="26.0" fill="#000000" transform="matrix(1.00, 0.00, -0.00, -1.00, 433.6, 341.1)">t</text><text xml:space="preserve" font-family="ArialMT,Arial" font-size="26.0" fill="#000000" transform="matrix(1.00, 0.00, -0.00, -1.00, 440.8, 341.1)">E</text><text xml:space="preserve" font-family="ArialMT,Arial" font-size="26.0" fill="#000000" transform="matrix(1.00, 0.00, -0.00, -1.00, 458.2, 341.1)">t</text><text xml:space="preserve" font-family="ArialMT,Arial" font-size="26.0" fill="#000000" transform="matrix(1.00, 0.00, -0.00, -1.00, 465.4, 341.1)">h</text><text xml:space="preserve" font-family="ArialMT,Arial" font-size="26.0" fill="#000000" transform="matrix(1.00, 0.00, -0.00, -1.00, 479.9, 341.1)">e</text><text xml:space="preserve" font-family="ArialMT,Arial" font-size="26.0" fill="#000000" transform="matrix(1.00, 0.00, -0.00, -1.00, 494.3, 341.1)">r</text><text xml:space="preserve" font-family="ArialMT,Arial" font-size="26.0" fill="#000000" transform="matrix(1.00, 0.00, -0.00, -1.00, 503.0, 341.1)"> </text><text xml:space="preserve" font-family="ArialMT,Arial" font-size="26.0" fill="#000000" transform="matrix(1.00, 0.00, -0.00, -1.00, 510.2, 341.1)">V</text><text xml:space="preserve" font-family="ArialMT,Arial" font-size="26.0" fill="#000000" transform="matrix(1.00, 0.00, -0.00, -1.00, 527.5, 341.1)">P</text><text xml:space="preserve" font-family="ArialMT,Arial" font-size="26.0" fill="#000000" transform="matrix(1.00, 0.00, -0.00, -1.00, 544.9, 341.1)">N</text><text xml:space="preserve" font-family="ArialMT,Arial" font-size="26.0" fill="#000000" transform="matrix(1.00, 0.00, -0.00, -1.00, 563.7, 341.1)"> </text><text xml:space="preserve" font-family="LucidaGrande,Lucida Grande" font-size="26.0" fill="#000000" transform="matrix(1.00, 0.00, -0.00, -1.00, 75.6, 302.4)">‣</text><text xml:space="preserve" font-family="ArialMT,Arial" font-size="26.0" fill="#000000" transform="matrix(1.00, 0.00, -0.00, -1.00, 102.6, 302.4)">A</text><text xml:space="preserve" font-family="ArialMT,Arial" font-size="26.0" fill="#000000" transform="matrix(1.00, 0.00, -0.00, -1.00, 119.9, 302.4)">n</text><text xml:space="preserve" font-family="ArialMT,Arial" font-size="26.0" fill="#000000" transform="matrix(1.00, 0.00, -0.00, -1.00, 134.4, 302.4)"> </text><text xml:space="preserve" font-family="ArialMT,Arial" font-size="26.0" fill="#000000" transform="matrix(1.00, 0.00, -0.00, -1.00, 141.6, 302.4)">O</text><text xml:space="preserve" font-family="ArialMT,Arial" font-size="26.0" fill="#000000" transform="matrix(1.00, 0.00, -0.00, -1.00, 161.8, 302.4)">p</text><text xml:space="preserve" font-family="ArialMT,Arial" font-size="26.0" fill="#000000" transform="matrix(1.00, 0.00, -0.00, -1.00, 176.3, 302.4)">e</text><text xml:space="preserve" font-family="ArialMT,Arial" font-size="26.0" fill="#000000" transform="matrix(1.00, 0.00, -0.00, -1.00, 190.8, 302.4)">n</text><text xml:space="preserve" font-family="ArialMT,Arial" font-size="26.0" fill="#000000" transform="matrix(1.00, 0.00, -0.00, -1.00, 205.2, 302.4)">-</text><text xml:space="preserve" font-family="ArialMT,Arial" font-size="26.0" fill="#000000" transform="matrix(1.00, 0.00, -0.00, -1.00, 213.9, 302.4)">S</text><text xml:space="preserve" font-family="ArialMT,Arial" font-size="26.0" fill="#000000" transform="matrix(1.00, 0.00, -0.00, -1.00, 231.2, 302.4)">o</text><text xml:space="preserve" font-family="ArialMT,Arial" font-size="26.0" fill="#000000" transform="matrix(1.00, 0.00, -0.00, -1.00, 245.7, 302.4)">u</text><text xml:space="preserve" font-family="ArialMT,Arial" font-size="26.0" fill="#000000" transform="matrix(1.00, 0.00, -0.00, -1.00, 260.2, 302.4)">r</text><text xml:space="preserve" font-family="ArialMT,Arial" font-size="26.0" fill="#000000" transform="matrix(1.00, 0.00, -0.00, -1.00, 268.8, 302.4)">c</text><text xml:space="preserve" font-family="ArialMT,Arial" font-size="26.0" fill="#000000" transform="matrix(1.00, 0.00, -0.00, -1.00, 281.8, 302.4)">e</text><text xml:space="preserve" font-family="ArialMT,Arial" font-size="26.0" fill="#000000" transform="matrix(1.00, 0.00, -0.00, -1.00, 296.3, 302.4)"> </text><text xml:space="preserve" font-family="ArialMT,Arial" font-size="26.0" fill="#000000" transform="matrix(1.00, 0.00, -0.00, -1.00, 303.5, 302.4)">F</text><text xml:space="preserve" font-family="ArialMT,Arial" font-size="26.0" fill="#000000" transform="matrix(1.00, 0.00, -0.00, -1.00, 319.4, 302.4)">r</text><text xml:space="preserve" font-family="ArialMT,Arial" font-size="26.0" fill="#000000" transform="matrix(1.00, 0.00, -0.00, -1.00, 328.0, 302.4)">e</text><text xml:space="preserve" font-family="ArialMT,Arial" font-size="26.0" fill="#000000" transform="matrix(1.00, 0.00, -0.00, -1.00, 342.5, 302.4)">e</text><text xml:space="preserve" font-family="ArialMT,Arial" font-size="26.0" fill="#000000" transform="matrix(1.00, 0.00, -0.00, -1.00, 357.0, 302.4)"> </text><text xml:space="preserve" font-family="ArialMT,Arial" font-size="26.0" fill="#000000" transform="matrix(1.00, 0.00, -0.00, -1.00, 364.2, 302.4)">C</text><text xml:space="preserve" font-family="ArialMT,Arial" font-size="26.0" fill="#000000" transform="matrix(1.00, 0.00, -0.00, -1.00, 383.0, 302.4)">r</text><text xml:space="preserve" font-family="ArialMT,Arial" font-size="26.0" fill="#000000" transform="matrix(1.00, 0.00, -0.00, -1.00, 391.6, 302.4)">o</text><text xml:space="preserve" font-family="ArialMT,Arial" font-size="26.0" fill="#000000" transform="matrix(1.00, 0.00, -0.00, -1.00, 406.1, 302.4)">s</text><text xml:space="preserve" font-family="ArialMT,Arial" font-size="26.0" fill="#000000" transform="matrix(1.00, 0.00, -0.00, -1.00, 419.1, 302.4)">s</text><text xml:space="preserve" font-family="ArialMT,Arial" font-size="26.0" fill="#000000" transform="matrix(1.00, 0.00, -0.00, -1.00, 432.1, 302.4)">-</text><text xml:space="preserve" font-family="ArialMT,Arial" font-size="26.0" fill="#000000" transform="matrix(1.00, 0.00, -0.00, -1.00, 440.8, 302.4)">p</text><text xml:space="preserve" font-family="ArialMT,Arial" font-size="26.0" fill="#000000" transform="matrix(1.00, 0.00, -0.00, -1.00, 455.2, 302.4)">l</text><text xml:space="preserve" font-family="ArialMT,Arial" font-size="26.0" fill="#000000" transform="matrix(1.00, 0.00, -0.00, -1.00, 461.0, 302.4)">a</text><text xml:space="preserve" font-family="ArialMT,Arial" font-size="26.0" fill="#000000" transform="matrix(1.00, 0.00, -0.00, -1.00, 475.5, 302.4)">t</text><text xml:space="preserve" font-family="ArialMT,Arial" font-size="26.0" fill="#000000" transform="matrix(1.00, 0.00, -0.00, -1.00, 482.7, 302.4)">f</text><text xml:space="preserve" font-family="ArialMT,Arial" font-size="26.0" fill="#000000" transform="matrix(1.00, 0.00, -0.00, -1.00, 489.9, 302.4)">o</text><text xml:space="preserve" font-family="ArialMT,Arial" font-size="26.0" fill="#000000" transform="matrix(1.00, 0.00, -0.00, -1.00, 504.4, 302.4)">r</text><text xml:space="preserve" font-family="ArialMT,Arial" font-size="26.0" fill="#000000" transform="matrix(1.00, 0.00, -0.00, -1.00, 513.0, 302.4)">m</text><text xml:space="preserve" font-family="ArialMT,Arial" font-size="26.0" fill="#000000" transform="matrix(1.00, 0.00, -0.00, -1.00, 534.7, 302.4)"> </text><text xml:space="preserve" font-family="ArialMT,Arial" font-size="26.0" fill="#000000" transform="matrix(1.00, 0.00, -0.00, -1.00, 541.9, 302.4)">M</text><text xml:space="preserve" font-family="ArialMT,Arial" font-size="26.0" fill="#000000" transform="matrix(1.00, 0.00, -0.00, -1.00, 563.6, 302.4)">u</text><text xml:space="preserve" font-family="ArialMT,Arial" font-size="26.0" fill="#000000" transform="matrix(1.00, 0.00, -0.00, -1.00, 578.0, 302.4)">l</text><text xml:space="preserve" font-family="ArialMT,Arial" font-size="26.0" fill="#000000" transform="matrix(1.00, 0.00, -0.00, -1.00, 583.8, 302.4)">t</text><text xml:space="preserve" font-family="ArialMT,Arial" font-size="26.0" fill="#000000" transform="matrix(1.00, 0.00, -0.00, -1.00, 591.0, 302.4)">i</text><text xml:space="preserve" font-family="ArialMT,Arial" font-size="26.0" fill="#000000" transform="matrix(1.00, 0.00, -0.00, -1.00, 596.8, 302.4)">-</text><text xml:space="preserve" font-family="ArialMT,Arial" font-size="26.0" fill="#000000" transform="matrix(1.00, 0.00, -0.00, -1.00, 102.6, 271.4)">p</text><text xml:space="preserve" font-family="ArialMT,Arial" font-size="26.0" fill="#000000" transform="matrix(1.00, 0.00, -0.00, -1.00, 117.1, 271.4)">r</text><text xml:space="preserve" font-family="ArialMT,Arial" font-size="26.0" fill="#000000" transform="matrix(1.00, 0.00, -0.00, -1.00, 125.7, 271.4)">o</text><text xml:space="preserve" font-family="ArialMT,Arial" font-size="26.0" fill="#000000" transform="matrix(1.00, 0.00, -0.00, -1.00, 140.2, 271.4)">t</text><text xml:space="preserve" font-family="ArialMT,Arial" font-size="26.0" fill="#000000" transform="matrix(1.00, 0.00, -0.00, -1.00, 147.4, 271.4)">o</text><text xml:space="preserve" font-family="ArialMT,Arial" font-size="26.0" fill="#000000" transform="matrix(1.00, 0.00, -0.00, -1.00, 161.9, 271.4)">c</text><text xml:space="preserve" font-family="ArialMT,Arial" font-size="26.0" fill="#000000" transform="matrix(1.00, 0.00, -0.00, -1.00, 174.9, 271.4)">o</text><text xml:space="preserve" font-family="ArialMT,Arial" font-size="26.0" fill="#000000" transform="matrix(1.00, 0.00, -0.00, -1.00, 189.3, 271.4)">l</text><text xml:space="preserve" font-family="ArialMT,Arial" font-size="26.0" fill="#000000" transform="matrix(1.00, 0.00, -0.00, -1.00, 195.1, 271.4)"> </text><text xml:space="preserve" font-family="ArialMT,Arial" font-size="26.0" fill="#000000" transform="matrix(1.00, 0.00, -0.00, -1.00, 202.3, 271.4)">V</text><text xml:space="preserve" font-family="ArialMT,Arial" font-size="26.0" fill="#000000" transform="matrix(1.00, 0.00, -0.00, -1.00, 219.7, 271.4)">P</text><text xml:space="preserve" font-family="ArialMT,Arial" font-size="26.0" fill="#000000" transform="matrix(1.00, 0.00, -0.00, -1.00, 237.0, 271.4)">N</text><text xml:space="preserve" font-family="ArialMT,Arial" font-size="26.0" fill="#000000" transform="matrix(1.00, 0.00, -0.00, -1.00, 255.8, 271.4)"> </text><text xml:space="preserve" font-family="ArialMT,Arial" font-size="26.0" fill="#000000" transform="matrix(1.00, 0.00, -0.00, -1.00, 263.0, 271.4)">P</text><text xml:space="preserve" font-family="ArialMT,Arial" font-size="26.0" fill="#000000" transform="matrix(1.00, 0.00, -0.00, -1.00, 280.4, 271.4)">r</text><text xml:space="preserve" font-family="ArialMT,Arial" font-size="26.0" fill="#000000" transform="matrix(1.00, 0.00, -0.00, -1.00, 289.0, 271.4)">o</text><text xml:space="preserve" font-family="ArialMT,Arial" font-size="26.0" fill="#000000" transform="matrix(1.00, 0.00, -0.00, -1.00, 303.5, 271.4)">g</text><text xml:space="preserve" font-family="ArialMT,Arial" font-size="26.0" fill="#000000" transform="matrix(1.00, 0.00, -0.00, -1.00, 318.0, 271.4)">r</text><text xml:space="preserve" font-family="ArialMT,Arial" font-size="26.0" fill="#000000" transform="matrix(1.00, 0.00, -0.00, -1.00, 326.6, 271.4)">a</text><text xml:space="preserve" font-family="ArialMT,Arial" font-size="26.0" fill="#000000" transform="matrix(1.00, 0.00, -0.00, -1.00, 341.1, 271.4)">m</text><text xml:space="preserve" font-family="ArialMT,Arial" font-size="26.0" fill="#000000" transform="matrix(1.00, 0.00, -0.00, -1.00, 362.7, 271.4)"> </text><text xml:space="preserve" font-family="LucidaGrande,Lucida Grande" font-size="26.0" fill="#000000" transform="matrix(1.00, 0.00, -0.00, -1.00, 75.6, 232.8)">‣</text><text xml:space="preserve" font-family="ArialMT,Arial" font-size="26.0" fill="#000000" transform="matrix(1.00, 0.00, -0.00, -1.00, 102.6, 232.7)">A</text><text xml:space="preserve" font-family="ArialMT,Arial" font-size="26.0" fill="#000000" transform="matrix(1.00, 0.00, -0.00, -1.00, 119.9, 232.7)">n</text><text xml:space="preserve" font-family="ArialMT,Arial" font-size="26.0" fill="#000000" transform="matrix(1.00, 0.00, -0.00, -1.00, 134.4, 232.7)"> </text><text xml:space="preserve" font-family="ArialMT,Arial" font-size="26.0" fill="#000000" transform="matrix(1.00, 0.00, -0.00, -1.00, 141.6, 232.7)">a</text><text xml:space="preserve" font-family="ArialMT,Arial" font-size="26.0" fill="#000000" transform="matrix(1.00, 0.00, -0.00, -1.00, 156.1, 232.7)">c</text><text xml:space="preserve" font-family="ArialMT,Arial" font-size="26.0" fill="#000000" transform="matrix(1.00, 0.00, -0.00, -1.00, 169.1, 232.7)">a</text><text xml:space="preserve" font-family="ArialMT,Arial" font-size="26.0" fill="#000000" transform="matrix(1.00, 0.00, -0.00, -1.00, 183.6, 232.7)">d</text><text xml:space="preserve" font-family="ArialMT,Arial" font-size="26.0" fill="#000000" transform="matrix(1.00, 0.00, -0.00, -1.00, 198.0, 232.7)">e</text><text xml:space="preserve" font-family="ArialMT,Arial" font-size="26.0" fill="#000000" transform="matrix(1.00, 0.00, -0.00, -1.00, 212.5, 232.7)">m</text><text xml:space="preserve" font-family="ArialMT,Arial" font-size="26.0" fill="#000000" transform="matrix(1.00, 0.00, -0.00, -1.00, 234.1, 232.7)">i</text><text xml:space="preserve" font-family="ArialMT,Arial" font-size="26.0" fill="#000000" transform="matrix(1.00, 0.00, -0.00, -1.00, 239.9, 232.7)">c</text><text xml:space="preserve" font-family="ArialMT,Arial" font-size="26.0" fill="#000000" transform="matrix(1.00, 0.00, -0.00, -1.00, 252.9, 232.7)"> </text><text xml:space="preserve" font-family="ArialMT,Arial" font-size="26.0" fill="#000000" transform="matrix(1.00, 0.00, -0.00, -1.00, 260.1, 232.7)">p</text><text xml:space="preserve" font-family="ArialMT,Arial" font-size="26.0" fill="#000000" transform="matrix(1.00, 0.00, -0.00, -1.00, 274.6, 232.7)">r</text><text xml:space="preserve" font-family="ArialMT,Arial" font-size="26.0" fill="#000000" transform="matrix(1.00, 0.00, -0.00, -1.00, 283.3, 232.7)">o</text><text xml:space="preserve" font-family="ArialMT,Arial" font-size="26.0" fill="#000000" transform="matrix(1.00, 0.00, -0.00, -1.00, 297.7, 232.7)">j</text><text xml:space="preserve" font-family="ArialMT,Arial" font-size="26.0" fill="#000000" transform="matrix(1.00, 0.00, -0.00, -1.00, 303.5, 232.7)">e</text><text xml:space="preserve" font-family="ArialMT,Arial" font-size="26.0" fill="#000000" transform="matrix(1.00, 0.00, -0.00, -1.00, 318.0, 232.7)">c</text><text xml:space="preserve" font-family="ArialMT,Arial" font-size="26.0" fill="#000000" transform="matrix(1.00, 0.00, -0.00, -1.00, 331.0, 232.7)">t</text><text xml:space="preserve" font-family="ArialMT,Arial" font-size="26.0" fill="#000000" transform="matrix(1.00, 0.00, -0.00, -1.00, 338.2, 232.7)"> </text><text xml:space="preserve" font-family="ArialMT,Arial" font-size="26.0" fill="#000000" transform="matrix(1.00, 0.00, -0.00, -1.00, 345.4, 232.7)">f</text><text xml:space="preserve" font-family="ArialMT,Arial" font-size="26.0" fill="#000000" transform="matrix(1.00, 0.00, -0.00, -1.00, 352.6, 232.7)">o</text><text xml:space="preserve" font-family="ArialMT,Arial" font-size="26.0" fill="#000000" transform="matrix(1.00, 0.00, -0.00, -1.00, 367.1, 232.7)">r</text><text xml:space="preserve" font-family="ArialMT,Arial" font-size="26.0" fill="#000000" transform="matrix(1.00, 0.00, -0.00, -1.00, 375.8, 232.7)">m</text><text xml:space="preserve" font-family="ArialMT,Arial" font-size="26.0" fill="#000000" transform="matrix(1.00, 0.00, -0.00, -1.00, 397.4, 232.7)"> </text><text xml:space="preserve" font-family="ArialMT,Arial" font-size="26.0" fill="#000000" transform="matrix(1.00, 0.00, -0.00, -1.00, 404.6, 232.7)">U</text><text xml:space="preserve" font-family="ArialMT,Arial" font-size="26.0" fill="#000000" transform="matrix(1.00, 0.00, -0.00, -1.00, 423.4, 232.7)">n</text><text xml:space="preserve" font-family="ArialMT,Arial" font-size="26.0" fill="#000000" transform="matrix(1.00, 0.00, -0.00, -1.00, 437.9, 232.7)">i</text><text xml:space="preserve" font-family="ArialMT,Arial" font-size="26.0" fill="#000000" transform="matrix(1.00, 0.00, -0.00, -1.00, 443.7, 232.7)">v</text><text xml:space="preserve" font-family="ArialMT,Arial" font-size="26.0" fill="#000000" transform="matrix(1.00, 0.00, -0.00, -1.00, 456.7, 232.7)">e</text><text xml:space="preserve" font-family="ArialMT,Arial" font-size="26.0" fill="#000000" transform="matrix(1.00, 0.00, -0.00, -1.00, 471.1, 232.7)">r</text><text xml:space="preserve" font-family="ArialMT,Arial" font-size="26.0" fill="#000000" transform="matrix(1.00, 0.00, -0.00, -1.00, 479.8, 232.7)">s</text><text xml:space="preserve" font-family="ArialMT,Arial" font-size="26.0" fill="#000000" transform="matrix(1.00, 0.00, -0.00, -1.00, 492.8, 232.7)">i</text><text xml:space="preserve" font-family="ArialMT,Arial" font-size="26.0" fill="#000000" transform="matrix(1.00, 0.00, -0.00, -1.00, 498.6, 232.7)">t</text><text xml:space="preserve" font-family="ArialMT,Arial" font-size="26.0" fill="#000000" transform="matrix(1.00, 0.00, -0.00, -1.00, 505.8, 232.7)">y</text><text xml:space="preserve" font-family="ArialMT,Arial" font-size="26.0" fill="#000000" transform="matrix(1.00, 0.00, -0.00, -1.00, 518.8, 232.7)"> </text><text xml:space="preserve" font-family="ArialMT,Arial" font-size="26.0" fill="#000000" transform="matrix(1.00, 0.00, -0.00, -1.00, 526.0, 232.7)">o</text><text xml:space="preserve" font-family="ArialMT,Arial" font-size="26.0" fill="#000000" transform="matrix(1.00, 0.00, -0.00, -1.00, 540.5, 232.7)">f</text><text xml:space="preserve" font-family="ArialMT,Arial" font-size="26.0" fill="#000000" transform="matrix(1.00, 0.00, -0.00, -1.00, 547.7, 232.7)"> </text><text xml:space="preserve" font-family="ArialMT,Arial" font-size="26.0" fill="#000000" transform="matrix(1.00, 0.00, -0.00, -1.00, 554.4, 232.7)">T</text><text xml:space="preserve" font-family="ArialMT,Arial" font-size="26.0" fill="#000000" transform="matrix(1.00, 0.00, -0.00, -1.00, 567.4, 232.7)">s</text><text xml:space="preserve" font-family="ArialMT,Arial" font-size="26.0" fill="#000000" transform="matrix(1.00, 0.00, -0.00, -1.00, 580.4, 232.7)">u</text><text xml:space="preserve" font-family="ArialMT,Arial" font-size="26.0" fill="#000000" transform="matrix(1.00, 0.00, -0.00, -1.00, 594.9, 232.7)">k</text><text xml:space="preserve" font-family="ArialMT,Arial" font-size="26.0" fill="#000000" transform="matrix(1.00, 0.00, -0.00, -1.00, 607.9, 232.7)">u</text><text xml:space="preserve" font-family="ArialMT,Arial" font-size="26.0" fill="#000000" transform="matrix(1.00, 0.00, -0.00, -1.00, 622.4, 232.7)">b</text><text xml:space="preserve" font-family="ArialMT,Arial" font-size="26.0" fill="#000000" transform="matrix(1.00, 0.00, -0.00, -1.00, 636.8, 232.7)">a</text><text xml:space="preserve" font-family="ArialMT,Arial" font-size="26.0" fill="#000000" transform="matrix(1.00, 0.00, -0.00, -1.00, 651.3, 232.7)"> </text><text xml:space="preserve" font-family="ArialMT,Arial" font-size="32.0" fill="#000000" transform="matrix(1.00, 0.00, -0.00, -1.00, 39.6, 189.5)">•</text><text xml:space="preserve" font-family="Arial-BoldMT,Arial" font-weight="bold" font-size="32.0" fill="#000000" transform="matrix(1.00, 0.00, -0.00, -1.00, 66.6, 189.5)">S</text><text xml:space="preserve" font-family="Arial-BoldMT,Arial" font-weight="bold" font-size="32.0" fill="#000000" transform="matrix(1.00, 0.00, -0.00, -1.00, 87.9, 189.5)">o</text><text xml:space="preserve" font-family="Arial-BoldMT,Arial" font-weight="bold" font-size="32.0" fill="#000000" transform="matrix(1.00, 0.00, -0.00, -1.00, 107.5, 189.5)">f</text><text xml:space="preserve" font-family="Arial-BoldMT,Arial" font-weight="bold" font-size="32.0" fill="#000000" transform="matrix(1.00, 0.00, -0.00, -1.00, 118.1, 189.5)">t</text><text xml:space="preserve" font-family="Arial-BoldMT,Arial" font-weight="bold" font-size="32.0" fill="#000000" transform="matrix(1.00, 0.00, -0.00, -1.00, 128.8, 189.5)">E</text><text xml:space="preserve" font-family="Arial-BoldMT,Arial" font-weight="bold" font-size="32.0" fill="#000000" transform="matrix(1.00, 0.00, -0.00, -1.00, 150.1, 189.5)">t</text><text xml:space="preserve" font-family="Arial-BoldMT,Arial" font-weight="bold" font-size="32.0" fill="#000000" transform="matrix(1.00, 0.00, -0.00, -1.00, 160.8, 189.5)">h</text><text xml:space="preserve" font-family="Arial-BoldMT,Arial" font-weight="bold" font-size="32.0" fill="#000000" transform="matrix(1.00, 0.00, -0.00, -1.00, 180.3, 189.5)">e</text><text xml:space="preserve" font-family="Arial-BoldMT,Arial" font-weight="bold" font-size="32.0" fill="#000000" transform="matrix(1.00, 0.00, -0.00, -1.00, 198.1, 189.5)">r</text><text xml:space="preserve" font-family="Arial-BoldMT,Arial" font-weight="bold" font-size="32.0" fill="#000000" transform="matrix(1.00, 0.00, -0.00, -1.00, 210.6, 189.5)"> </text><text xml:space="preserve" font-family="Arial-BoldMT,Arial" font-weight="bold" font-size="32.0" fill="#000000" transform="matrix(1.00, 0.00, -0.00, -1.00, 219.5, 189.5)">V</text><text xml:space="preserve" font-family="Arial-BoldMT,Arial" font-weight="bold" font-size="32.0" fill="#000000" transform="matrix(1.00, 0.00, -0.00, -1.00, 240.8, 189.5)">P</text><text xml:space="preserve" font-family="Arial-BoldMT,Arial" font-weight="bold" font-size="32.0" fill="#000000" transform="matrix(1.00, 0.00, -0.00, -1.00, 262.2, 189.5)">N</text><text xml:space="preserve" font-family="Arial-BoldMT,Arial" font-weight="bold" font-size="32.0" fill="#000000" transform="matrix(1.00, 0.00, -0.00, -1.00, 285.3, 189.5)"> </text><text xml:space="preserve" font-family="LucidaGrande,Lucida Grande" font-size="26.0" fill="#000000" transform="matrix(1.00, 0.00, -0.00, -1.00, 75.6, 149.4)">‣</text><text xml:space="preserve" font-family="ArialMT,Arial" font-size="26.0" fill="#000000" transform="matrix(1.00, 0.00, -0.00, -1.00, 102.6, 149.4)">"</text><text xml:space="preserve" font-family="ArialMT,Arial" font-size="26.0" fill="#000000" transform="matrix(1.00, 0.00, -0.00, -1.00, 111.8, 149.4)">S</text><text xml:space="preserve" font-family="ArialMT,Arial" font-size="26.0" fill="#000000" transform="matrix(1.00, 0.00, -0.00, -1.00, 129.2, 149.4)">o</text><text xml:space="preserve" font-family="ArialMT,Arial" font-size="26.0" fill="#000000" transform="matrix(1.00, 0.00, -0.00, -1.00, 143.6, 149.4)">f</text><text xml:space="preserve" font-family="ArialMT,Arial" font-size="26.0" fill="#000000" transform="matrix(1.00, 0.00, -0.00, -1.00, 150.9, 149.4)">t</text><text xml:space="preserve" font-family="ArialMT,Arial" font-size="26.0" fill="#000000" transform="matrix(1.00, 0.00, -0.00, -1.00, 158.1, 149.4)">E</text><text xml:space="preserve" font-family="ArialMT,Arial" font-size="26.0" fill="#000000" transform="matrix(1.00, 0.00, -0.00, -1.00, 175.4, 149.4)">t</text><text xml:space="preserve" font-family="ArialMT,Arial" font-size="26.0" fill="#000000" transform="matrix(1.00, 0.00, -0.00, -1.00, 182.6, 149.4)">h</text><text xml:space="preserve" font-family="ArialMT,Arial" font-size="26.0" fill="#000000" transform="matrix(1.00, 0.00, -0.00, -1.00, 197.1, 149.4)">e</text><text xml:space="preserve" font-family="ArialMT,Arial" font-size="26.0" fill="#000000" transform="matrix(1.00, 0.00, -0.00, -1.00, 211.6, 149.4)">r</text><text xml:space="preserve" font-family="ArialMT,Arial" font-size="26.0" fill="#000000" transform="matrix(1.00, 0.00, -0.00, -1.00, 220.2, 149.4)">"</text><text xml:space="preserve" font-family="ArialMT,Arial" font-size="26.0" fill="#000000" transform="matrix(1.00, 0.00, -0.00, -1.00, 229.5, 149.4)"> </text><text xml:space="preserve" font-family="ArialMT,Arial" font-size="26.0" fill="#000000" transform="matrix(1.00, 0.00, -0.00, -1.00, 236.7, 149.4)">m</text><text xml:space="preserve" font-family="ArialMT,Arial" font-size="26.0" fill="#000000" transform="matrix(1.00, 0.00, -0.00, -1.00, 258.3, 149.4)">e</text><text xml:space="preserve" font-family="ArialMT,Arial" font-size="26.0" fill="#000000" transform="matrix(1.00, 0.00, -0.00, -1.00, 272.8, 149.4)">a</text><text xml:space="preserve" font-family="ArialMT,Arial" font-size="26.0" fill="#000000" transform="matrix(1.00, 0.00, -0.00, -1.00, 287.3, 149.4)">n</text><text xml:space="preserve" font-family="ArialMT,Arial" font-size="26.0" fill="#000000" transform="matrix(1.00, 0.00, -0.00, -1.00, 301.7, 149.4)">s</text><text xml:space="preserve" font-family="ArialMT,Arial" font-size="26.0" fill="#000000" transform="matrix(1.00, 0.00, -0.00, -1.00, 314.7, 149.4)"> </text><text xml:space="preserve" font-family="ArialMT,Arial" font-size="26.0" fill="#000000" transform="matrix(1.00, 0.00, -0.00, -1.00, 321.9, 149.4)">"</text><text xml:space="preserve" font-family="ArialMT,Arial" font-size="26.0" fill="#000000" transform="matrix(1.00, 0.00, -0.00, -1.00, 331.2, 149.4)">S</text><text xml:space="preserve" font-family="ArialMT,Arial" font-size="26.0" fill="#000000" transform="matrix(1.00, 0.00, -0.00, -1.00, 348.5, 149.4)">o</text><text xml:space="preserve" font-family="ArialMT,Arial" font-size="26.0" fill="#000000" transform="matrix(1.00, 0.00, -0.00, -1.00, 363.0, 149.4)">f</text><text xml:space="preserve" font-family="ArialMT,Arial" font-size="26.0" fill="#000000" transform="matrix(1.00, 0.00, -0.00, -1.00, 370.2, 149.4)">t</text><text xml:space="preserve" font-family="ArialMT,Arial" font-size="26.0" fill="#000000" transform="matrix(1.00, 0.00, -0.00, -1.00, 377.4, 149.4)">w</text><text xml:space="preserve" font-family="ArialMT,Arial" font-size="26.0" fill="#000000" transform="matrix(1.00, 0.00, -0.00, -1.00, 396.2, 149.4)">a</text><text xml:space="preserve" font-family="ArialMT,Arial" font-size="26.0" fill="#000000" transform="matrix(1.00, 0.00, -0.00, -1.00, 410.7, 149.4)">r</text><text xml:space="preserve" font-family="ArialMT,Arial" font-size="26.0" fill="#000000" transform="matrix(1.00, 0.00, -0.00, -1.00, 419.3, 149.4)">e</text><text xml:space="preserve" font-family="ArialMT,Arial" font-size="26.0" fill="#000000" transform="matrix(1.00, 0.00, -0.00, -1.00, 433.8, 149.4)"> </text><text xml:space="preserve" font-family="ArialMT,Arial" font-size="26.0" fill="#000000" transform="matrix(1.00, 0.00, -0.00, -1.00, 441.0, 149.4)">E</text><text xml:space="preserve" font-family="ArialMT,Arial" font-size="26.0" fill="#000000" transform="matrix(1.00, 0.00, -0.00, -1.00, 458.3, 149.4)">t</text><text xml:space="preserve" font-family="ArialMT,Arial" font-size="26.0" fill="#000000" transform="matrix(1.00, 0.00, -0.00, -1.00, 465.6, 149.4)">h</text><text xml:space="preserve" font-family="ArialMT,Arial" font-size="26.0" fill="#000000" transform="matrix(1.00, 0.00, -0.00, -1.00, 480.0, 149.4)">e</text><text xml:space="preserve" font-family="ArialMT,Arial" font-size="26.0" fill="#000000" transform="matrix(1.00, 0.00, -0.00, -1.00, 494.5, 149.4)">r</text><text xml:space="preserve" font-family="ArialMT,Arial" font-size="26.0" fill="#000000" transform="matrix(1.00, 0.00, -0.00, -1.00, 503.2, 149.4)">n</text><text xml:space="preserve" font-family="ArialMT,Arial" font-size="26.0" fill="#000000" transform="matrix(1.00, 0.00, -0.00, -1.00, 517.6, 149.4)">e</text><text xml:space="preserve" font-family="ArialMT,Arial" font-size="26.0" fill="#000000" transform="matrix(1.00, 0.00, -0.00, -1.00, 532.1, 149.4)">t</text><text xml:space="preserve" font-family="ArialMT,Arial" font-size="26.0" fill="#000000" transform="matrix(1.00, 0.00, -0.00, -1.00, 539.3, 149.4)">”</text><text xml:space="preserve" font-family="ArialMT,Arial" font-size="26.0" fill="#000000" transform="matrix(1.00, 0.00, -0.00, -1.00, 547.9, 149.4)"> </text><text xml:space="preserve" font-family="LucidaGrande,Lucida Grande" font-size="26.0" fill="#000000" transform="matrix(1.00, 0.00, -0.00, -1.00, 75.6, 110.7)">‣</text><text xml:space="preserve" font-family="ArialMT,Arial" font-size="26.0" fill="#000000" transform="matrix(1.00, 0.00, -0.00, -1.00, 102.6, 110.7)">a</text><text xml:space="preserve" font-family="ArialMT,Arial" font-size="26.0" fill="#000000" transform="matrix(1.00, 0.00, -0.00, -1.00, 117.1, 110.7)">n</text><text xml:space="preserve" font-family="ArialMT,Arial" font-size="26.0" fill="#000000" transform="matrix(1.00, 0.00, -0.00, -1.00, 131.5, 110.7)">y</text><text xml:space="preserve" font-family="ArialMT,Arial" font-size="26.0" fill="#000000" transform="matrix(1.00, 0.00, -0.00, -1.00, 144.5, 110.7)"> </text><text xml:space="preserve" font-family="ArialMT,Arial" font-size="26.0" fill="#000000" transform="matrix(1.00, 0.00, -0.00, -1.00, 151.7, 110.7)">p</text><text xml:space="preserve" font-family="ArialMT,Arial" font-size="26.0" fill="#000000" transform="matrix(1.00, 0.00, -0.00, -1.00, 166.2, 110.7)">e</text><text xml:space="preserve" font-family="ArialMT,Arial" font-size="26.0" fill="#000000" transform="matrix(1.00, 0.00, -0.00, -1.00, 180.7, 110.7)">r</text><text xml:space="preserve" font-family="ArialMT,Arial" font-size="26.0" fill="#000000" transform="matrix(1.00, 0.00, -0.00, -1.00, 189.3, 110.7)">s</text><text xml:space="preserve" font-family="ArialMT,Arial" font-size="26.0" fill="#000000" transform="matrix(1.00, 0.00, -0.00, -1.00, 202.3, 110.7)">o</text><text xml:space="preserve" font-family="ArialMT,Arial" font-size="26.0" fill="#000000" transform="matrix(1.00, 0.00, -0.00, -1.00, 216.8, 110.7)">n</text><text xml:space="preserve" font-family="ArialMT,Arial" font-size="26.0" fill="#000000" transform="matrix(1.00, 0.00, -0.00, -1.00, 231.3, 110.7)">a</text><text xml:space="preserve" font-family="ArialMT,Arial" font-size="26.0" fill="#000000" transform="matrix(1.00, 0.00, -0.00, -1.00, 245.7, 110.7)">l</text><text xml:space="preserve" font-family="ArialMT,Arial" font-size="26.0" fill="#000000" transform="matrix(1.00, 0.00, -0.00, -1.00, 251.5, 110.7)"> </text><text xml:space="preserve" font-family="ArialMT,Arial" font-size="26.0" fill="#000000" transform="matrix(1.00, 0.00, -0.00, -1.00, 258.7, 110.7)">o</text><text xml:space="preserve" font-family="ArialMT,Arial" font-size="26.0" fill="#000000" transform="matrix(1.00, 0.00, -0.00, -1.00, 273.2, 110.7)">r</text><text xml:space="preserve" font-family="ArialMT,Arial" font-size="26.0" fill="#000000" transform="matrix(1.00, 0.00, -0.00, -1.00, 281.9, 110.7)"> </text><text xml:space="preserve" font-family="ArialMT,Arial" font-size="26.0" fill="#000000" transform="matrix(1.00, 0.00, -0.00, -1.00, 289.1, 110.7)">c</text><text xml:space="preserve" font-family="ArialMT,Arial" font-size="26.0" fill="#000000" transform="matrix(1.00, 0.00, -0.00, -1.00, 302.1, 110.7)">o</text><text xml:space="preserve" font-family="ArialMT,Arial" font-size="26.0" fill="#000000" transform="matrix(1.00, 0.00, -0.00, -1.00, 316.5, 110.7)">m</text><text xml:space="preserve" font-family="ArialMT,Arial" font-size="26.0" fill="#000000" transform="matrix(1.00, 0.00, -0.00, -1.00, 338.2, 110.7)">m</text><text xml:space="preserve" font-family="ArialMT,Arial" font-size="26.0" fill="#000000" transform="matrix(1.00, 0.00, -0.00, -1.00, 359.9, 110.7)">e</text><text xml:space="preserve" font-family="ArialMT,Arial" font-size="26.0" fill="#000000" transform="matrix(1.00, 0.00, -0.00, -1.00, 374.3, 110.7)">r</text><text xml:space="preserve" font-family="ArialMT,Arial" font-size="26.0" fill="#000000" transform="matrix(1.00, 0.00, -0.00, -1.00, 383.0, 110.7)">c</text><text xml:space="preserve" font-family="ArialMT,Arial" font-size="26.0" fill="#000000" transform="matrix(1.00, 0.00, -0.00, -1.00, 396.0, 110.7)">i</text><text xml:space="preserve" font-family="ArialMT,Arial" font-size="26.0" fill="#000000" transform="matrix(1.00, 0.00, -0.00, -1.00, 401.8, 110.7)">a</text><text xml:space="preserve" font-family="ArialMT,Arial" font-size="26.0" fill="#000000" transform="matrix(1.00, 0.00, -0.00, -1.00, 416.2, 110.7)">l</text><text xml:space="preserve" font-family="ArialMT,Arial" font-size="26.0" fill="#000000" transform="matrix(1.00, 0.00, -0.00, -1.00, 422.0, 110.7)"> </text><text xml:space="preserve" font-family="ArialMT,Arial" font-size="26.0" fill="#000000" transform="matrix(1.00, 0.00, -0.00, -1.00, 429.2, 110.7)">u</text><text xml:space="preserve" font-family="ArialMT,Arial" font-size="26.0" fill="#000000" transform="matrix(1.00, 0.00, -0.00, -1.00, 443.7, 110.7)">s</text><text xml:space="preserve" font-family="ArialMT,Arial" font-size="26.0" fill="#000000" transform="matrix(1.00, 0.00, -0.00, -1.00, 456.7, 110.7)">e</text><text xml:space="preserve" font-family="ArialMT,Arial" font-size="26.0" fill="#000000" transform="matrix(1.00, 0.00, -0.00, -1.00, 471.2, 110.7)"> </text><text xml:space="preserve" font-family="ArialMT,Arial" font-size="26.0" fill="#000000" transform="matrix(1.00, 0.00, -0.00, -1.00, 478.4, 110.7)">f</text><text xml:space="preserve" font-family="ArialMT,Arial" font-size="26.0" fill="#000000" transform="matrix(1.00, 0.00, -0.00, -1.00, 485.6, 110.7)">o</text><text xml:space="preserve" font-family="ArialMT,Arial" font-size="26.0" fill="#000000" transform="matrix(1.00, 0.00, -0.00, -1.00, 500.1, 110.7)">r</text><text xml:space="preserve" font-family="ArialMT,Arial" font-size="26.0" fill="#000000" transform="matrix(1.00, 0.00, -0.00, -1.00, 508.7, 110.7)"> </text><text xml:space="preserve" font-family="ArialMT,Arial" font-size="26.0" fill="#000000" transform="matrix(1.00, 0.00, -0.00, -1.00, 515.9, 110.7)">f</text><text xml:space="preserve" font-family="ArialMT,Arial" font-size="26.0" fill="#000000" transform="matrix(1.00, 0.00, -0.00, -1.00, 523.2, 110.7)">r</text><text xml:space="preserve" font-family="ArialMT,Arial" font-size="26.0" fill="#000000" transform="matrix(1.00, 0.00, -0.00, -1.00, 531.8, 110.7)">e</text><text xml:space="preserve" font-family="ArialMT,Arial" font-size="26.0" fill="#000000" transform="matrix(1.00, 0.00, -0.00, -1.00, 546.3, 110.7)">e</text><text xml:space="preserve" font-family="ArialMT,Arial" font-size="26.0" fill="#000000" transform="matrix(1.00, 0.00, -0.00, -1.00, 560.7, 110.7)"> </text><text xml:space="preserve" font-family="ArialMT,Arial" font-size="26.0" fill="#000000" transform="matrix(1.00, 0.00, -0.00, -1.00, 568.0, 110.7)">c</text><text xml:space="preserve" font-family="ArialMT,Arial" font-size="26.0" fill="#000000" transform="matrix(1.00, 0.00, -0.00, -1.00, 581.0, 110.7)">h</text><text xml:space="preserve" font-family="ArialMT,Arial" font-size="26.0" fill="#000000" transform="matrix(1.00, 0.00, -0.00, -1.00, 595.4, 110.7)">a</text><text xml:space="preserve" font-family="ArialMT,Arial" font-size="26.0" fill="#000000" transform="matrix(1.00, 0.00, -0.00, -1.00, 609.9, 110.7)">r</text><text xml:space="preserve" font-family="ArialMT,Arial" font-size="26.0" fill="#000000" transform="matrix(1.00, 0.00, -0.00, -1.00, 618.5, 110.7)">g</text><text xml:space="preserve" font-family="ArialMT,Arial" font-size="26.0" fill="#000000" transform="matrix(1.00, 0.00, -0.00, -1.00, 633.0, 110.7)">e</text><text xml:space="preserve" font-family="Arial-BoldMT,Arial" font-weight="bold" font-size="12.0" fill="#878787" transform="matrix(1.00, 0.00, -0.00, -1.00, 40.4, 18.9)">3</text></g></svg>