<?xml version="1.0" encoding="UTF-8" standalone="no"?><svg xmlns="http://www.w3.org/2000/svg" xmlns:xlink="http://www.w3.org/1999/xlink" clip-rule="evenodd" stroke-miterlimit="10" viewBox="0 0 720 540"><desc>SVG generated by Keynote</desc><defs></defs><g transform="matrix(1.00, 0.00, -0.00, -1.00, 0.0, 540.0)"><path d="M 0.0 540.0 L 720.0 540.0 L 720.0 0.0 L 0.0 0.0 Z M 0.0 540.0 " fill="#FFFFFF"></path><image xlink:href="../../045D45E7-1013-462A-8CDC-1884EC156DCD/assets/BE3DFCE860134B92C519AA4F1C594AC7.jpeg" width="159.00" height="65.00" transform="matrix(0.75, 0.00, -0.00, -0.75, 600.8, 48.8)"></image><image xlink:href="../../045D45E7-1013-462A-8CDC-1884EC156DCD/assets/6CDF1A72F53077ED9FEB2236C202D045.png" width="276.00" height="252.00" transform="matrix(0.56, 0.00, -0.00, -0.56, 0.0, 540.0)"></image><text xml:space="preserve" font-family="ArialMT,Arial" font-size="44.0" fill="#000000" transform="matrix(1.00, 0.00, -0.00, -1.00, 83.7, 457.9)">S</text><text xml:space="preserve" font-family="ArialMT,Arial" font-size="44.0" fill="#000000" transform="matrix(1.00, 0.00, -0.00, -1.00, 113.0, 457.9)">t</text><text xml:space="preserve" font-family="ArialMT,Arial" font-size="44.0" fill="#000000" transform="matrix(1.00, 0.00, -0.00, -1.00, 125.2, 457.9)">r</text><text xml:space="preserve" font-family="ArialMT,Arial" font-size="44.0" fill="#000000" transform="matrix(1.00, 0.00, -0.00, -1.00, 139.9, 457.9)">o</text><text xml:space="preserve" font-family="ArialMT,Arial" font-size="44.0" fill="#000000" transform="matrix(1.00, 0.00, -0.00, -1.00, 164.4, 457.9)">n</text><text xml:space="preserve" font-family="ArialMT,Arial" font-size="44.0" fill="#000000" transform="matrix(1.00, 0.00, -0.00, -1.00, 188.8, 457.9)">g</text><text xml:space="preserve" font-family="ArialMT,Arial" font-size="44.0" fill="#000000" transform="matrix(1.00, 0.00, -0.00, -1.00, 213.3, 457.9)"> </text><text xml:space="preserve" font-family="ArialMT,Arial" font-size="44.0" fill="#000000" transform="matrix(1.00, 0.00, -0.00, -1.00, 225.5, 457.9)">S</text><text xml:space="preserve" font-family="ArialMT,Arial" font-size="44.0" fill="#000000" transform="matrix(1.00, 0.00, -0.00, -1.00, 254.9, 457.9)">e</text><text xml:space="preserve" font-family="ArialMT,Arial" font-size="44.0" fill="#000000" transform="matrix(1.00, 0.00, -0.00, -1.00, 279.4, 457.9)">c</text><text xml:space="preserve" font-family="ArialMT,Arial" font-size="44.0" fill="#000000" transform="matrix(1.00, 0.00, -0.00, -1.00, 301.4, 457.9)">u</text><text xml:space="preserve" font-family="ArialMT,Arial" font-size="44.0" fill="#000000" transform="matrix(1.00, 0.00, -0.00, -1.00, 325.8, 457.9)">r</text><text xml:space="preserve" font-family="ArialMT,Arial" font-size="44.0" fill="#000000" transform="matrix(1.00, 0.00, -0.00, -1.00, 340.5, 457.9)">i</text><text xml:space="preserve" font-family="ArialMT,Arial" font-size="44.0" fill="#000000" transform="matrix(1.00, 0.00, -0.00, -1.00, 350.3, 457.9)">t</text><text xml:space="preserve" font-family="ArialMT,Arial" font-size="44.0" fill="#000000" transform="matrix(1.00, 0.00, -0.00, -1.00, 362.5, 457.9)">y</text><text xml:space="preserve" font-family="ArialMT,Arial" font-size="44.0" fill="#000000" transform="matrix(1.00, 0.00, -0.00, -1.00, 384.5, 457.9)"> </text><text xml:space="preserve" font-family="ArialMT,Arial" font-size="44.0" fill="#000000" transform="matrix(1.00, 0.00, -0.00, -1.00, 396.7, 457.9)">F</text><text xml:space="preserve" font-family="ArialMT,Arial" font-size="44.0" fill="#000000" transform="matrix(1.00, 0.00, -0.00, -1.00, 423.6, 457.9)">e</text><text xml:space="preserve" font-family="ArialMT,Arial" font-size="44.0" fill="#000000" transform="matrix(1.00, 0.00, -0.00, -1.00, 448.1, 457.9)">a</text><text xml:space="preserve" font-family="ArialMT,Arial" font-size="44.0" fill="#000000" transform="matrix(1.00, 0.00, -0.00, -1.00, 472.5, 457.9)">t</text><text xml:space="preserve" font-family="ArialMT,Arial" font-size="44.0" fill="#000000" transform="matrix(1.00, 0.00, -0.00, -1.00, 484.8, 457.9)">u</text><text xml:space="preserve" font-family="ArialMT,Arial" font-size="44.0" fill="#000000" transform="matrix(1.00, 0.00, -0.00, -1.00, 509.2, 457.9)">r</text><text xml:space="preserve" font-family="ArialMT,Arial" font-size="44.0" fill="#000000" transform="matrix(1.00, 0.00, -0.00, -1.00, 523.9, 457.9)">e</text><text xml:space="preserve" font-family="ArialMT,Arial" font-size="44.0" fill="#000000" transform="matrix(1.00, 0.00, -0.00, -1.00, 548.4, 457.9)">s</text><text xml:space="preserve" font-family="ArialMT,Arial" font-size="44.0" fill="#000000" transform="matrix(1.00, 0.00, -0.00, -1.00, 570.4, 457.9)"> </text><text xml:space="preserve" font-family="ArialMT,Arial" font-size="44.0" fill="#000000" transform="matrix(1.00, 0.00, -0.00, -1.00, 582.6, 457.9)">(</text><text xml:space="preserve" font-family="ArialMT,Arial" font-size="44.0" fill="#000000" transform="matrix(1.00, 0.00, -0.00, -1.00, 597.2, 457.9)">2</text><text xml:space="preserve" font-family="ArialMT,Arial" font-size="44.0" fill="#000000" transform="matrix(1.00, 0.00, -0.00, -1.00, 621.7, 457.9)">)</text><text xml:space="preserve" font-family="ArialMT,Arial" font-size="32.0" fill="#000000" transform="matrix(1.00, 0.00, -0.00, -1.00, 39.6, 381.2)">•</text><text xml:space="preserve" font-family="ArialMT,Arial" font-size="32.0" fill="#000000" transform="matrix(1.00, 0.00, -0.00, -1.00, 66.6, 381.2)">R</text><text xml:space="preserve" font-family="ArialMT,Arial" font-size="32.0" fill="#000000" transform="matrix(1.00, 0.00, -0.00, -1.00, 89.7, 381.2)">o</text><text xml:space="preserve" font-family="ArialMT,Arial" font-size="32.0" fill="#000000" transform="matrix(1.00, 0.00, -0.00, -1.00, 107.5, 381.2)">b</text><text xml:space="preserve" font-family="ArialMT,Arial" font-size="32.0" fill="#000000" transform="matrix(1.00, 0.00, -0.00, -1.00, 125.3, 381.2)">u</text><text xml:space="preserve" font-family="ArialMT,Arial" font-size="32.0" fill="#000000" transform="matrix(1.00, 0.00, -0.00, -1.00, 143.1, 381.2)">s</text><text xml:space="preserve" font-family="ArialMT,Arial" font-size="32.0" fill="#000000" transform="matrix(1.00, 0.00, -0.00, -1.00, 159.1, 381.2)">t</text><text xml:space="preserve" font-family="ArialMT,Arial" font-size="32.0" fill="#000000" transform="matrix(1.00, 0.00, -0.00, -1.00, 168.0, 381.2)"> </text><text xml:space="preserve" font-family="ArialMT,Arial" font-size="32.0" fill="#000000" transform="matrix(1.00, 0.00, -0.00, -1.00, 176.9, 381.2)">E</text><text xml:space="preserve" font-family="ArialMT,Arial" font-size="32.0" fill="#000000" transform="matrix(1.00, 0.00, -0.00, -1.00, 198.2, 381.2)">n</text><text xml:space="preserve" font-family="ArialMT,Arial" font-size="32.0" fill="#000000" transform="matrix(1.00, 0.00, -0.00, -1.00, 216.0, 381.2)">c</text><text xml:space="preserve" font-family="ArialMT,Arial" font-size="32.0" fill="#000000" transform="matrix(1.00, 0.00, -0.00, -1.00, 232.0, 381.2)">r</text><text xml:space="preserve" font-family="ArialMT,Arial" font-size="32.0" fill="#000000" transform="matrix(1.00, 0.00, -0.00, -1.00, 242.7, 381.2)">y</text><text xml:space="preserve" font-family="ArialMT,Arial" font-size="32.0" fill="#000000" transform="matrix(1.00, 0.00, -0.00, -1.00, 258.7, 381.2)">p</text><text xml:space="preserve" font-family="ArialMT,Arial" font-size="32.0" fill="#000000" transform="matrix(1.00, 0.00, -0.00, -1.00, 276.5, 381.2)">t</text><text xml:space="preserve" font-family="ArialMT,Arial" font-size="32.0" fill="#000000" transform="matrix(1.00, 0.00, -0.00, -1.00, 285.4, 381.2)">i</text><text xml:space="preserve" font-family="ArialMT,Arial" font-size="32.0" fill="#000000" transform="matrix(1.00, 0.00, -0.00, -1.00, 292.5, 381.2)">o</text><text xml:space="preserve" font-family="ArialMT,Arial" font-size="32.0" fill="#000000" transform="matrix(1.00, 0.00, -0.00, -1.00, 310.3, 381.2)">n</text><text xml:space="preserve" font-family="ArialMT,Arial" font-size="32.0" fill="#000000" transform="matrix(1.00, 0.00, -0.00, -1.00, 328.1, 381.2)"> </text><text xml:space="preserve" font-family="ArialMT,Arial" font-size="28.0" fill="#000000" transform="matrix(1.00, 0.00, -0.00, -1.00, 75.6, 340.6)">–</text><text xml:space="preserve" font-family="ArialMT,Arial" font-size="28.0" fill="#000000" transform="matrix(1.00, 0.00, -0.00, -1.00, 98.1, 340.6)">A</text><text xml:space="preserve" font-family="ArialMT,Arial" font-size="28.0" fill="#000000" transform="matrix(1.00, 0.00, -0.00, -1.00, 116.8, 340.6)">l</text><text xml:space="preserve" font-family="ArialMT,Arial" font-size="28.0" fill="#000000" transform="matrix(1.00, 0.00, -0.00, -1.00, 123.0, 340.6)">l</text><text xml:space="preserve" font-family="ArialMT,Arial" font-size="28.0" fill="#000000" transform="matrix(1.00, 0.00, -0.00, -1.00, 129.2, 340.6)"> </text><text xml:space="preserve" font-family="ArialMT,Arial" font-size="28.0" fill="#000000" transform="matrix(1.00, 0.00, -0.00, -1.00, 137.0, 340.6)">c</text><text xml:space="preserve" font-family="ArialMT,Arial" font-size="28.0" fill="#000000" transform="matrix(1.00, 0.00, -0.00, -1.00, 151.0, 340.6)">o</text><text xml:space="preserve" font-family="ArialMT,Arial" font-size="28.0" fill="#000000" transform="matrix(1.00, 0.00, -0.00, -1.00, 166.6, 340.6)">m</text><text xml:space="preserve" font-family="ArialMT,Arial" font-size="28.0" fill="#000000" transform="matrix(1.00, 0.00, -0.00, -1.00, 189.9, 340.6)">m</text><text xml:space="preserve" font-family="ArialMT,Arial" font-size="28.0" fill="#000000" transform="matrix(1.00, 0.00, -0.00, -1.00, 213.3, 340.6)">u</text><text xml:space="preserve" font-family="ArialMT,Arial" font-size="28.0" fill="#000000" transform="matrix(1.00, 0.00, -0.00, -1.00, 228.8, 340.6)">n</text><text xml:space="preserve" font-family="ArialMT,Arial" font-size="28.0" fill="#000000" transform="matrix(1.00, 0.00, -0.00, -1.00, 244.4, 340.6)">i</text><text xml:space="preserve" font-family="ArialMT,Arial" font-size="28.0" fill="#000000" transform="matrix(1.00, 0.00, -0.00, -1.00, 250.6, 340.6)">c</text><text xml:space="preserve" font-family="ArialMT,Arial" font-size="28.0" fill="#000000" transform="matrix(1.00, 0.00, -0.00, -1.00, 264.6, 340.6)">a</text><text xml:space="preserve" font-family="ArialMT,Arial" font-size="28.0" fill="#000000" transform="matrix(1.00, 0.00, -0.00, -1.00, 280.2, 340.6)">t</text><text xml:space="preserve" font-family="ArialMT,Arial" font-size="28.0" fill="#000000" transform="matrix(1.00, 0.00, -0.00, -1.00, 288.0, 340.6)">i</text><text xml:space="preserve" font-family="ArialMT,Arial" font-size="28.0" fill="#000000" transform="matrix(1.00, 0.00, -0.00, -1.00, 294.2, 340.6)">o</text><text xml:space="preserve" font-family="ArialMT,Arial" font-size="28.0" fill="#000000" transform="matrix(1.00, 0.00, -0.00, -1.00, 309.8, 340.6)">n</text><text xml:space="preserve" font-family="ArialMT,Arial" font-size="28.0" fill="#000000" transform="matrix(1.00, 0.00, -0.00, -1.00, 325.4, 340.6)"> </text><text xml:space="preserve" font-family="ArialMT,Arial" font-size="28.0" fill="#000000" transform="matrix(1.00, 0.00, -0.00, -1.00, 333.2, 340.6)">c</text><text xml:space="preserve" font-family="ArialMT,Arial" font-size="28.0" fill="#000000" transform="matrix(1.00, 0.00, -0.00, -1.00, 347.2, 340.6)">o</text><text xml:space="preserve" font-family="ArialMT,Arial" font-size="28.0" fill="#000000" transform="matrix(1.00, 0.00, -0.00, -1.00, 362.8, 340.6)">n</text><text xml:space="preserve" font-family="ArialMT,Arial" font-size="28.0" fill="#000000" transform="matrix(1.00, 0.00, -0.00, -1.00, 378.3, 340.6)">t</text><text xml:space="preserve" font-family="ArialMT,Arial" font-size="28.0" fill="#000000" transform="matrix(1.00, 0.00, -0.00, -1.00, 386.1, 340.6)">e</text><text xml:space="preserve" font-family="ArialMT,Arial" font-size="28.0" fill="#000000" transform="matrix(1.00, 0.00, -0.00, -1.00, 401.7, 340.6)">n</text><text xml:space="preserve" font-family="ArialMT,Arial" font-size="28.0" fill="#000000" transform="matrix(1.00, 0.00, -0.00, -1.00, 417.3, 340.6)">t</text><text xml:space="preserve" font-family="ArialMT,Arial" font-size="28.0" fill="#000000" transform="matrix(1.00, 0.00, -0.00, -1.00, 425.0, 340.6)">s</text><text xml:space="preserve" font-family="ArialMT,Arial" font-size="28.0" fill="#000000" transform="matrix(1.00, 0.00, -0.00, -1.00, 439.0, 340.6)"> </text><text xml:space="preserve" font-family="ArialMT,Arial" font-size="28.0" fill="#000000" transform="matrix(1.00, 0.00, -0.00, -1.00, 446.8, 340.6)">a</text><text xml:space="preserve" font-family="ArialMT,Arial" font-size="28.0" fill="#000000" transform="matrix(1.00, 0.00, -0.00, -1.00, 462.4, 340.6)">n</text><text xml:space="preserve" font-family="ArialMT,Arial" font-size="28.0" fill="#000000" transform="matrix(1.00, 0.00, -0.00, -1.00, 478.0, 340.6)">d</text><text xml:space="preserve" font-family="ArialMT,Arial" font-size="28.0" fill="#000000" transform="matrix(1.00, 0.00, -0.00, -1.00, 493.6, 340.6)"> </text><text xml:space="preserve" font-family="ArialMT,Arial" font-size="28.0" fill="#000000" transform="matrix(1.00, 0.00, -0.00, -1.00, 501.4, 340.6)">d</text><text xml:space="preserve" font-family="ArialMT,Arial" font-size="28.0" fill="#000000" transform="matrix(1.00, 0.00, -0.00, -1.00, 517.0, 340.6)">a</text><text xml:space="preserve" font-family="ArialMT,Arial" font-size="28.0" fill="#000000" transform="matrix(1.00, 0.00, -0.00, -1.00, 532.5, 340.6)">t</text><text xml:space="preserve" font-family="ArialMT,Arial" font-size="28.0" fill="#000000" transform="matrix(1.00, 0.00, -0.00, -1.00, 540.3, 340.6)">a</text><text xml:space="preserve" font-family="ArialMT,Arial" font-size="28.0" fill="#000000" transform="matrix(1.00, 0.00, -0.00, -1.00, 555.9, 340.6)"> </text><text xml:space="preserve" font-family="ArialMT,Arial" font-size="28.0" fill="#000000" transform="matrix(1.00, 0.00, -0.00, -1.00, 563.7, 340.6)">r</text><text xml:space="preserve" font-family="ArialMT,Arial" font-size="28.0" fill="#000000" transform="matrix(1.00, 0.00, -0.00, -1.00, 573.0, 340.6)">e</text><text xml:space="preserve" font-family="ArialMT,Arial" font-size="28.0" fill="#000000" transform="matrix(1.00, 0.00, -0.00, -1.00, 588.6, 340.6)">l</text><text xml:space="preserve" font-family="ArialMT,Arial" font-size="28.0" fill="#000000" transform="matrix(1.00, 0.00, -0.00, -1.00, 594.8, 340.6)">a</text><text xml:space="preserve" font-family="ArialMT,Arial" font-size="28.0" fill="#000000" transform="matrix(1.00, 0.00, -0.00, -1.00, 610.4, 340.6)">t</text><text xml:space="preserve" font-family="ArialMT,Arial" font-size="28.0" fill="#000000" transform="matrix(1.00, 0.00, -0.00, -1.00, 618.2, 340.6)">e</text><text xml:space="preserve" font-family="ArialMT,Arial" font-size="28.0" fill="#000000" transform="matrix(1.00, 0.00, -0.00, -1.00, 633.8, 340.6)">d</text><text xml:space="preserve" font-family="ArialMT,Arial" font-size="28.0" fill="#000000" transform="matrix(1.00, 0.00, -0.00, -1.00, 649.3, 340.6)"> </text><text xml:space="preserve" font-family="ArialMT,Arial" font-size="28.0" fill="#000000" transform="matrix(1.00, 0.00, -0.00, -1.00, 657.1, 340.6)">t</text><text xml:space="preserve" font-family="ArialMT,Arial" font-size="28.0" fill="#000000" transform="matrix(1.00, 0.00, -0.00, -1.00, 664.9, 340.6)">o</text><text xml:space="preserve" font-family="ArialMT,Arial" font-size="28.0" fill="#000000" transform="matrix(1.00, 0.00, -0.00, -1.00, 680.5, 340.6)"> </text><text xml:space="preserve" font-family="ArialMT,Arial" font-size="28.0" fill="#000000" transform="matrix(1.00, 0.00, -0.00, -1.00, 98.1, 308.6)">u</text><text xml:space="preserve" font-family="ArialMT,Arial" font-size="28.0" fill="#000000" transform="matrix(1.00, 0.00, -0.00, -1.00, 113.7, 308.6)">s</text><text xml:space="preserve" font-family="ArialMT,Arial" font-size="28.0" fill="#000000" transform="matrix(1.00, 0.00, -0.00, -1.00, 127.7, 308.6)">e</text><text xml:space="preserve" font-family="ArialMT,Arial" font-size="28.0" fill="#000000" transform="matrix(1.00, 0.00, -0.00, -1.00, 143.3, 308.6)">r</text><text xml:space="preserve" font-family="ArialMT,Arial" font-size="28.0" fill="#000000" transform="matrix(1.00, 0.00, -0.00, -1.00, 152.6, 308.6)"> </text><text xml:space="preserve" font-family="ArialMT,Arial" font-size="28.0" fill="#000000" transform="matrix(1.00, 0.00, -0.00, -1.00, 160.4, 308.6)">a</text><text xml:space="preserve" font-family="ArialMT,Arial" font-size="28.0" fill="#000000" transform="matrix(1.00, 0.00, -0.00, -1.00, 175.9, 308.6)">u</text><text xml:space="preserve" font-family="ArialMT,Arial" font-size="28.0" fill="#000000" transform="matrix(1.00, 0.00, -0.00, -1.00, 191.5, 308.6)">t</text><text xml:space="preserve" font-family="ArialMT,Arial" font-size="28.0" fill="#000000" transform="matrix(1.00, 0.00, -0.00, -1.00, 199.3, 308.6)">h</text><text xml:space="preserve" font-family="ArialMT,Arial" font-size="28.0" fill="#000000" transform="matrix(1.00, 0.00, -0.00, -1.00, 214.9, 308.6)">e</text><text xml:space="preserve" font-family="ArialMT,Arial" font-size="28.0" fill="#000000" transform="matrix(1.00, 0.00, -0.00, -1.00, 230.4, 308.6)">n</text><text xml:space="preserve" font-family="ArialMT,Arial" font-size="28.0" fill="#000000" transform="matrix(1.00, 0.00, -0.00, -1.00, 246.0, 308.6)">t</text><text xml:space="preserve" font-family="ArialMT,Arial" font-size="28.0" fill="#000000" transform="matrix(1.00, 0.00, -0.00, -1.00, 253.8, 308.6)">i</text><text xml:space="preserve" font-family="ArialMT,Arial" font-size="28.0" fill="#000000" transform="matrix(1.00, 0.00, -0.00, -1.00, 260.0, 308.6)">c</text><text xml:space="preserve" font-family="ArialMT,Arial" font-size="28.0" fill="#000000" transform="matrix(1.00, 0.00, -0.00, -1.00, 274.0, 308.6)">a</text><text xml:space="preserve" font-family="ArialMT,Arial" font-size="28.0" fill="#000000" transform="matrix(1.00, 0.00, -0.00, -1.00, 289.6, 308.6)">t</text><text xml:space="preserve" font-family="ArialMT,Arial" font-size="28.0" fill="#000000" transform="matrix(1.00, 0.00, -0.00, -1.00, 297.4, 308.6)">i</text><text xml:space="preserve" font-family="ArialMT,Arial" font-size="28.0" fill="#000000" transform="matrix(1.00, 0.00, -0.00, -1.00, 303.6, 308.6)">o</text><text xml:space="preserve" font-family="ArialMT,Arial" font-size="28.0" fill="#000000" transform="matrix(1.00, 0.00, -0.00, -1.00, 319.2, 308.6)">n</text><text xml:space="preserve" font-family="ArialMT,Arial" font-size="28.0" fill="#000000" transform="matrix(1.00, 0.00, -0.00, -1.00, 334.8, 308.6)"> </text><text xml:space="preserve" font-family="ArialMT,Arial" font-size="28.0" fill="#000000" transform="matrix(1.00, 0.00, -0.00, -1.00, 342.5, 308.6)">i</text><text xml:space="preserve" font-family="ArialMT,Arial" font-size="28.0" fill="#000000" transform="matrix(1.00, 0.00, -0.00, -1.00, 348.8, 308.6)">s</text><text xml:space="preserve" font-family="ArialMT,Arial" font-size="28.0" fill="#000000" transform="matrix(1.00, 0.00, -0.00, -1.00, 362.8, 308.6)"> </text><text xml:space="preserve" font-family="ArialMT,Arial" font-size="28.0" fill="#000000" transform="matrix(1.00, 0.00, -0.00, -1.00, 370.5, 308.6)">e</text><text xml:space="preserve" font-family="ArialMT,Arial" font-size="28.0" fill="#000000" transform="matrix(1.00, 0.00, -0.00, -1.00, 386.1, 308.6)">n</text><text xml:space="preserve" font-family="ArialMT,Arial" font-size="28.0" fill="#000000" transform="matrix(1.00, 0.00, -0.00, -1.00, 401.7, 308.6)">c</text><text xml:space="preserve" font-family="ArialMT,Arial" font-size="28.0" fill="#000000" transform="matrix(1.00, 0.00, -0.00, -1.00, 415.7, 308.6)">r</text><text xml:space="preserve" font-family="ArialMT,Arial" font-size="28.0" fill="#000000" transform="matrix(1.00, 0.00, -0.00, -1.00, 425.0, 308.6)">y</text><text xml:space="preserve" font-family="ArialMT,Arial" font-size="28.0" fill="#000000" transform="matrix(1.00, 0.00, -0.00, -1.00, 439.0, 308.6)">p</text><text xml:space="preserve" font-family="ArialMT,Arial" font-size="28.0" fill="#000000" transform="matrix(1.00, 0.00, -0.00, -1.00, 454.6, 308.6)">t</text><text xml:space="preserve" font-family="ArialMT,Arial" font-size="28.0" fill="#000000" transform="matrix(1.00, 0.00, -0.00, -1.00, 462.4, 308.6)">e</text><text xml:space="preserve" font-family="ArialMT,Arial" font-size="28.0" fill="#000000" transform="matrix(1.00, 0.00, -0.00, -1.00, 477.9, 308.6)">d</text><text xml:space="preserve" font-family="ArialMT,Arial" font-size="28.0" fill="#000000" transform="matrix(1.00, 0.00, -0.00, -1.00, 493.5, 308.6)"> </text><text xml:space="preserve" font-family="ArialMT,Arial" font-size="28.0" fill="#000000" transform="matrix(1.00, 0.00, -0.00, -1.00, 501.3, 308.6)">b</text><text xml:space="preserve" font-family="ArialMT,Arial" font-size="28.0" fill="#000000" transform="matrix(1.00, 0.00, -0.00, -1.00, 516.9, 308.6)">y</text><text xml:space="preserve" font-family="ArialMT,Arial" font-size="28.0" fill="#000000" transform="matrix(1.00, 0.00, -0.00, -1.00, 530.9, 308.6)"> </text><text xml:space="preserve" font-family="ArialMT,Arial" font-size="28.0" fill="#000000" transform="matrix(1.00, 0.00, -0.00, -1.00, 538.6, 308.6)">S</text><text xml:space="preserve" font-family="ArialMT,Arial" font-size="28.0" fill="#000000" transform="matrix(1.00, 0.00, -0.00, -1.00, 557.3, 308.6)">e</text><text xml:space="preserve" font-family="ArialMT,Arial" font-size="28.0" fill="#000000" transform="matrix(1.00, 0.00, -0.00, -1.00, 572.9, 308.6)">c</text><text xml:space="preserve" font-family="ArialMT,Arial" font-size="28.0" fill="#000000" transform="matrix(1.00, 0.00, -0.00, -1.00, 586.9, 308.6)">u</text><text xml:space="preserve" font-family="ArialMT,Arial" font-size="28.0" fill="#000000" transform="matrix(1.00, 0.00, -0.00, -1.00, 602.5, 308.6)">r</text><text xml:space="preserve" font-family="ArialMT,Arial" font-size="28.0" fill="#000000" transform="matrix(1.00, 0.00, -0.00, -1.00, 611.8, 308.6)">e</text><text xml:space="preserve" font-family="ArialMT,Arial" font-size="28.0" fill="#000000" transform="matrix(1.00, 0.00, -0.00, -1.00, 627.4, 308.6)"> </text><text xml:space="preserve" font-family="ArialMT,Arial" font-size="28.0" fill="#000000" transform="matrix(1.00, 0.00, -0.00, -1.00, 98.1, 276.6)">S</text><text xml:space="preserve" font-family="ArialMT,Arial" font-size="28.0" fill="#000000" transform="matrix(1.00, 0.00, -0.00, -1.00, 116.8, 276.6)">o</text><text xml:space="preserve" font-family="ArialMT,Arial" font-size="28.0" fill="#000000" transform="matrix(1.00, 0.00, -0.00, -1.00, 132.4, 276.6)">c</text><text xml:space="preserve" font-family="ArialMT,Arial" font-size="28.0" fill="#000000" transform="matrix(1.00, 0.00, -0.00, -1.00, 146.4, 276.6)">k</text><text xml:space="preserve" font-family="ArialMT,Arial" font-size="28.0" fill="#000000" transform="matrix(1.00, 0.00, -0.00, -1.00, 160.4, 276.6)">e</text><text xml:space="preserve" font-family="ArialMT,Arial" font-size="28.0" fill="#000000" transform="matrix(1.00, 0.00, -0.00, -1.00, 175.9, 276.6)">t</text><text xml:space="preserve" font-family="ArialMT,Arial" font-size="28.0" fill="#000000" transform="matrix(1.00, 0.00, -0.00, -1.00, 183.7, 276.6)"> </text><text xml:space="preserve" font-family="ArialMT,Arial" font-size="28.0" fill="#000000" transform="matrix(1.00, 0.00, -0.00, -1.00, 191.5, 276.6)">L</text><text xml:space="preserve" font-family="ArialMT,Arial" font-size="28.0" fill="#000000" transform="matrix(1.00, 0.00, -0.00, -1.00, 207.1, 276.6)">a</text><text xml:space="preserve" font-family="ArialMT,Arial" font-size="28.0" fill="#000000" transform="matrix(1.00, 0.00, -0.00, -1.00, 222.6, 276.6)">y</text><text xml:space="preserve" font-family="ArialMT,Arial" font-size="28.0" fill="#000000" transform="matrix(1.00, 0.00, -0.00, -1.00, 236.6, 276.6)">e</text><text xml:space="preserve" font-family="ArialMT,Arial" font-size="28.0" fill="#000000" transform="matrix(1.00, 0.00, -0.00, -1.00, 252.2, 276.6)">r</text><text xml:space="preserve" font-family="ArialMT,Arial" font-size="28.0" fill="#000000" transform="matrix(1.00, 0.00, -0.00, -1.00, 261.5, 276.6)"> </text><text xml:space="preserve" font-family="ArialMT,Arial" font-size="28.0" fill="#000000" transform="matrix(1.00, 0.00, -0.00, -1.00, 269.3, 276.6)">(</text><text xml:space="preserve" font-family="ArialMT,Arial" font-size="28.0" fill="#000000" transform="matrix(1.00, 0.00, -0.00, -1.00, 278.6, 276.6)">S</text><text xml:space="preserve" font-family="ArialMT,Arial" font-size="28.0" fill="#000000" transform="matrix(1.00, 0.00, -0.00, -1.00, 297.3, 276.6)">S</text><text xml:space="preserve" font-family="ArialMT,Arial" font-size="28.0" fill="#000000" transform="matrix(1.00, 0.00, -0.00, -1.00, 316.0, 276.6)">L</text><text xml:space="preserve" font-family="ArialMT,Arial" font-size="28.0" fill="#000000" transform="matrix(1.00, 0.00, -0.00, -1.00, 331.6, 276.6)">)</text><text xml:space="preserve" font-family="ArialMT,Arial" font-size="28.0" fill="#000000" transform="matrix(1.00, 0.00, -0.00, -1.00, 340.9, 276.6)"> </text><text xml:space="preserve" font-family="ArialMT,Arial" font-size="28.0" fill="#000000" transform="matrix(1.00, 0.00, -0.00, -1.00, 348.7, 276.6)">e</text><text xml:space="preserve" font-family="ArialMT,Arial" font-size="28.0" fill="#000000" transform="matrix(1.00, 0.00, -0.00, -1.00, 364.2, 276.6)">n</text><text xml:space="preserve" font-family="ArialMT,Arial" font-size="28.0" fill="#000000" transform="matrix(1.00, 0.00, -0.00, -1.00, 379.8, 276.6)">c</text><text xml:space="preserve" font-family="ArialMT,Arial" font-size="28.0" fill="#000000" transform="matrix(1.00, 0.00, -0.00, -1.00, 393.8, 276.6)">r</text><text xml:space="preserve" font-family="ArialMT,Arial" font-size="28.0" fill="#000000" transform="matrix(1.00, 0.00, -0.00, -1.00, 403.1, 276.6)">y</text><text xml:space="preserve" font-family="ArialMT,Arial" font-size="28.0" fill="#000000" transform="matrix(1.00, 0.00, -0.00, -1.00, 417.1, 276.6)">p</text><text xml:space="preserve" font-family="ArialMT,Arial" font-size="28.0" fill="#000000" transform="matrix(1.00, 0.00, -0.00, -1.00, 432.7, 276.6)">t</text><text xml:space="preserve" font-family="ArialMT,Arial" font-size="28.0" fill="#000000" transform="matrix(1.00, 0.00, -0.00, -1.00, 440.5, 276.6)">i</text><text xml:space="preserve" font-family="ArialMT,Arial" font-size="28.0" fill="#000000" transform="matrix(1.00, 0.00, -0.00, -1.00, 446.7, 276.6)">o</text><text xml:space="preserve" font-family="ArialMT,Arial" font-size="28.0" fill="#000000" transform="matrix(1.00, 0.00, -0.00, -1.00, 462.3, 276.6)">n</text><text xml:space="preserve" font-family="ArialMT,Arial" font-size="28.0" fill="#000000" transform="matrix(1.00, 0.00, -0.00, -1.00, 477.9, 276.6)">.</text><text xml:space="preserve" font-family="Arial-BoldMT,Arial" font-weight="bold" font-size="12.0" fill="#878787" transform="matrix(1.00, 0.00, -0.00, -1.00, 40.4, 18.9)">4</text><image xlink:href="7843460E22EF243F32767C300487DD0B.png" width="891.00" height="351.00" transform="matrix(0.54, 0.00, -0.00, -0.54, 119.9, 269.6)"></image><text xml:space="preserve" font-family="ArialMT,Arial" font-size="18.0" fill="#000000" transform="matrix(1.00, 0.00, -0.00, -1.00, 116.6, 59.8)">R</text><text xml:space="preserve" font-family="ArialMT,Arial" font-size="18.0" fill="#000000" transform="matrix(1.00, 0.00, -0.00, -1.00, 129.6, 59.8)">o</text><text xml:space="preserve" font-family="ArialMT,Arial" font-size="18.0" fill="#000000" transform="matrix(1.00, 0.00, -0.00, -1.00, 139.6, 59.8)">b</text><text xml:space="preserve" font-family="ArialMT,Arial" font-size="18.0" fill="#000000" transform="matrix(1.00, 0.00, -0.00, -1.00, 149.6, 59.8)">u</text><text xml:space="preserve" font-family="ArialMT,Arial" font-size="18.0" fill="#000000" transform="matrix(1.00, 0.00, -0.00, -1.00, 159.6, 59.8)">s</text><text xml:space="preserve" font-family="ArialMT,Arial" font-size="18.0" fill="#000000" transform="matrix(1.00, 0.00, -0.00, -1.00, 168.6, 59.8)">t</text><text xml:space="preserve" font-family="ArialMT,Arial" font-size="18.0" fill="#000000" transform="matrix(1.00, 0.00, -0.00, -1.00, 173.6, 59.8)"> </text><text xml:space="preserve" font-family="ArialMT,Arial" font-size="18.0" fill="#000000" transform="matrix(1.00, 0.00, -0.00, -1.00, 178.6, 59.8)">V</text><text xml:space="preserve" font-family="ArialMT,Arial" font-size="18.0" fill="#000000" transform="matrix(1.00, 0.00, -0.00, -1.00, 190.6, 59.8)">P</text><text xml:space="preserve" font-family="ArialMT,Arial" font-size="18.0" fill="#000000" transform="matrix(1.00, 0.00, -0.00, -1.00, 202.7, 59.8)">N</text><text xml:space="preserve" font-family="ArialMT,Arial" font-size="18.0" fill="#000000" transform="matrix(1.00, 0.00, -0.00, -1.00, 215.7, 59.8)"> </text><text xml:space="preserve" font-family="ArialMT,Arial" font-size="18.0" fill="#000000" transform="matrix(1.00, 0.00, -0.00, -1.00, 220.7, 59.8)">s</text><text xml:space="preserve" font-family="ArialMT,Arial" font-size="18.0" fill="#000000" transform="matrix(1.00, 0.00, -0.00, -1.00, 229.7, 59.8)">e</text><text xml:space="preserve" font-family="ArialMT,Arial" font-size="18.0" fill="#000000" transform="matrix(1.00, 0.00, -0.00, -1.00, 239.7, 59.8)">s</text><text xml:space="preserve" font-family="ArialMT,Arial" font-size="18.0" fill="#000000" transform="matrix(1.00, 0.00, -0.00, -1.00, 248.7, 59.8)">s</text><text xml:space="preserve" font-family="ArialMT,Arial" font-size="18.0" fill="#000000" transform="matrix(1.00, 0.00, -0.00, -1.00, 257.7, 59.8)">i</text><text xml:space="preserve" font-family="ArialMT,Arial" font-size="18.0" fill="#000000" transform="matrix(1.00, 0.00, -0.00, -1.00, 261.7, 59.8)">o</text><text xml:space="preserve" font-family="ArialMT,Arial" font-size="18.0" fill="#000000" transform="matrix(1.00, 0.00, -0.00, -1.00, 271.7, 59.8)">n</text><text xml:space="preserve" font-family="ArialMT,Arial" font-size="18.0" fill="#000000" transform="matrix(1.00, 0.00, -0.00, -1.00, 281.7, 59.8)"> </text><text xml:space="preserve" font-family="ArialMT,Arial" font-size="18.0" fill="#000000" transform="matrix(1.00, 0.00, -0.00, -1.00, 286.7, 59.8)">e</text><text xml:space="preserve" font-family="ArialMT,Arial" font-size="18.0" fill="#000000" transform="matrix(1.00, 0.00, -0.00, -1.00, 296.7, 59.8)">n</text><text xml:space="preserve" font-family="ArialMT,Arial" font-size="18.0" fill="#000000" transform="matrix(1.00, 0.00, -0.00, -1.00, 306.7, 59.8)">c</text><text xml:space="preserve" font-family="ArialMT,Arial" font-size="18.0" fill="#000000" transform="matrix(1.00, 0.00, -0.00, -1.00, 315.7, 59.8)">r</text><text xml:space="preserve" font-family="ArialMT,Arial" font-size="18.0" fill="#000000" transform="matrix(1.00, 0.00, -0.00, -1.00, 321.7, 59.8)">y</text><text xml:space="preserve" font-family="ArialMT,Arial" font-size="18.0" fill="#000000" transform="matrix(1.00, 0.00, -0.00, -1.00, 330.7, 59.8)">p</text><text xml:space="preserve" font-family="ArialMT,Arial" font-size="18.0" fill="#000000" transform="matrix(1.00, 0.00, -0.00, -1.00, 340.7, 59.8)">t</text><text xml:space="preserve" font-family="ArialMT,Arial" font-size="18.0" fill="#000000" transform="matrix(1.00, 0.00, -0.00, -1.00, 345.7, 59.8)">i</text><text xml:space="preserve" font-family="ArialMT,Arial" font-size="18.0" fill="#000000" transform="matrix(1.00, 0.00, -0.00, -1.00, 349.7, 59.8)">o</text><text xml:space="preserve" font-family="ArialMT,Arial" font-size="18.0" fill="#000000" transform="matrix(1.00, 0.00, -0.00, -1.00, 359.7, 59.8)">n</text><text xml:space="preserve" font-family="ArialMT,Arial" font-size="18.0" fill="#000000" transform="matrix(1.00, 0.00, -0.00, -1.00, 369.8, 59.8)"> </text><text xml:space="preserve" font-family="ArialMT,Arial" font-size="18.0" fill="#000000" transform="matrix(1.00, 0.00, -0.00, -1.00, 374.8, 59.8)">b</text><text xml:space="preserve" font-family="ArialMT,Arial" font-size="18.0" fill="#000000" transform="matrix(1.00, 0.00, -0.00, -1.00, 384.8, 59.8)">y</text><text xml:space="preserve" font-family="ArialMT,Arial" font-size="18.0" fill="#000000" transform="matrix(1.00, 0.00, -0.00, -1.00, 393.8, 59.8)"> </text><text xml:space="preserve" font-family="ArialMT,Arial" font-size="18.0" fill="#000000" transform="matrix(1.00, 0.00, -0.00, -1.00, 398.8, 59.8)">v</text><text xml:space="preserve" font-family="ArialMT,Arial" font-size="18.0" fill="#000000" transform="matrix(1.00, 0.00, -0.00, -1.00, 407.8, 59.8)">a</text><text xml:space="preserve" font-family="ArialMT,Arial" font-size="18.0" fill="#000000" transform="matrix(1.00, 0.00, -0.00, -1.00, 417.8, 59.8)">r</text><text xml:space="preserve" font-family="ArialMT,Arial" font-size="18.0" fill="#000000" transform="matrix(1.00, 0.00, -0.00, -1.00, 423.8, 59.8)">i</text><text xml:space="preserve" font-family="ArialMT,Arial" font-size="18.0" fill="#000000" transform="matrix(1.00, 0.00, -0.00, -1.00, 427.8, 59.8)">o</text><text xml:space="preserve" font-family="ArialMT,Arial" font-size="18.0" fill="#000000" transform="matrix(1.00, 0.00, -0.00, -1.00, 437.8, 59.8)">u</text><text xml:space="preserve" font-family="ArialMT,Arial" font-size="18.0" fill="#000000" transform="matrix(1.00, 0.00, -0.00, -1.00, 447.8, 59.8)">s</text><text xml:space="preserve" font-family="ArialMT,Arial" font-size="18.0" fill="#000000" transform="matrix(1.00, 0.00, -0.00, -1.00, 456.8, 59.8)"> </text><text xml:space="preserve" font-family="ArialMT,Arial" font-size="18.0" fill="#000000" transform="matrix(1.00, 0.00, -0.00, -1.00, 461.8, 59.8)">e</text><text xml:space="preserve" font-family="ArialMT,Arial" font-size="18.0" fill="#000000" transform="matrix(1.00, 0.00, -0.00, -1.00, 471.8, 59.8)">n</text><text xml:space="preserve" font-family="ArialMT,Arial" font-size="18.0" fill="#000000" transform="matrix(1.00, 0.00, -0.00, -1.00, 481.8, 59.8)">c</text><text xml:space="preserve" font-family="ArialMT,Arial" font-size="18.0" fill="#000000" transform="matrix(1.00, 0.00, -0.00, -1.00, 490.8, 59.8)">r</text><text xml:space="preserve" font-family="ArialMT,Arial" font-size="18.0" fill="#000000" transform="matrix(1.00, 0.00, -0.00, -1.00, 496.8, 59.8)">y</text><text xml:space="preserve" font-family="ArialMT,Arial" font-size="18.0" fill="#000000" transform="matrix(1.00, 0.00, -0.00, -1.00, 505.8, 59.8)">p</text><text xml:space="preserve" font-family="ArialMT,Arial" font-size="18.0" fill="#000000" transform="matrix(1.00, 0.00, -0.00, -1.00, 515.8, 59.8)">t</text><text xml:space="preserve" font-family="ArialMT,Arial" font-size="18.0" fill="#000000" transform="matrix(1.00, 0.00, -0.00, -1.00, 520.8, 59.8)">i</text><text xml:space="preserve" font-family="ArialMT,Arial" font-size="18.0" fill="#000000" transform="matrix(1.00, 0.00, -0.00, -1.00, 524.8, 59.8)">o</text><text xml:space="preserve" font-family="ArialMT,Arial" font-size="18.0" fill="#000000" transform="matrix(1.00, 0.00, -0.00, -1.00, 534.9, 59.8)">n</text><text xml:space="preserve" font-family="ArialMT,Arial" font-size="18.0" fill="#000000" transform="matrix(1.00, 0.00, -0.00, -1.00, 544.9, 59.8)"> </text><text xml:space="preserve" font-family="ArialMT,Arial" font-size="18.0" fill="#000000" transform="matrix(1.00, 0.00, -0.00, -1.00, 549.9, 59.8)">a</text><text xml:space="preserve" font-family="ArialMT,Arial" font-size="18.0" fill="#000000" transform="matrix(1.00, 0.00, -0.00, -1.00, 559.9, 59.8)">l</text><text xml:space="preserve" font-family="ArialMT,Arial" font-size="18.0" fill="#000000" transform="matrix(1.00, 0.00, -0.00, -1.00, 563.9, 59.8)">g</text><text xml:space="preserve" font-family="ArialMT,Arial" font-size="18.0" fill="#000000" transform="matrix(1.00, 0.00, -0.00, -1.00, 573.9, 59.8)">o</text><text xml:space="preserve" font-family="ArialMT,Arial" font-size="18.0" fill="#000000" transform="matrix(1.00, 0.00, -0.00, -1.00, 583.9, 59.8)">r</text><text xml:space="preserve" font-family="ArialMT,Arial" font-size="18.0" fill="#000000" transform="matrix(1.00, 0.00, -0.00, -1.00, 589.9, 59.8)">i</text><text xml:space="preserve" font-family="ArialMT,Arial" font-size="18.0" fill="#000000" transform="matrix(1.00, 0.00, -0.00, -1.00, 593.9, 59.8)">t</text><text xml:space="preserve" font-family="ArialMT,Arial" font-size="18.0" fill="#000000" transform="matrix(1.00, 0.00, -0.00, -1.00, 598.9, 59.8)">h</text><text xml:space="preserve" font-family="ArialMT,Arial" font-size="18.0" fill="#000000" transform="matrix(1.00, 0.00, -0.00, -1.00, 608.9, 59.8)">m</text><text xml:space="preserve" font-family="ArialMT,Arial" font-size="18.0" fill="#000000" transform="matrix(1.00, 0.00, -0.00, -1.00, 623.9, 59.8)">s</text><text xml:space="preserve" font-family="ArialMT,Arial" font-size="18.0" fill="#000000" transform="matrix(1.00, 0.00, -0.00, -1.00, 632.9, 59.8)">.</text></g></svg>